<?xml version="1.0" encoding="utf-8"?>
<!-- Generator: Adobe Illustrator 27.2.0, SVG Export Plug-In . SVG Version: 6.00 Build 0)  -->
<svg version="1.1" id="Layer_1" xmlns="http://www.w3.org/2000/svg" xmlns:xlink="http://www.w3.org/1999/xlink" x="0px" y="0px"
	 viewBox="0 0 585 390" style="enable-background:new 0 0 585 390;" xml:space="preserve">
<style type="text/css">
	.st0{fill:#6EAE4F;}
	.st1{fill:#84B66D;}
	.st2{fill:#C8C7C7;}
	.st3{fill:#B2B0B1;}
	.st4{fill:#E9E9E9;}
	.st5{fill:#201C1D;}
	.st6{fill:#1F1A1B;}
	.st7{fill:#999899;}
	.st8{fill:#FFD330;}
	.st9{fill:#FFA85B;}
	.st10{fill:#FF8D21;}
	.st11{fill:#57B333;}
	.st12{fill:#35732D;}
	.st13{fill:#EECD47;}
	.st14{fill:#F09B5A;}
	.st15{fill:#F4D978;}
	.st16{fill:#504D4E;}
	.st17{fill:#FCCB15;}
	.st18{fill:#272627;}
	.st19{fill:#6F6E6E;}
	.st20{fill:#838282;}
</style>
<g id="Capa_2">
	<g>
		<g>
			<path class="st0" d="M277.2,344.9c0.1-0.2,0.3-0.4,0.6-0.5c0.3-0.2,0.6-0.4,0.9-0.6c2-1.4,3.9-2.7,5.9-4.1l1.9-0.5l2.1-0.2
				c0.3-0.2,0.6-0.3,1-0.5c0.5,0,1,0,1.6,0c0.3,0.2,0.5,0.3,0.8,0.5l0,0c1,0.3,2.1,0.5,3.1,0.8c5.3,2,8.6,5.7,9.3,11.4
				c0.1,0.3,0.3,0.7,0.5,1c0,4.6,0.2,9.2,0.1,13.8c0,0.8-0.9,2.2-1.4,2.2c-0.9,0-1.7-0.9-2.6-1.4c0-0.5,0-1,0-1.4
				c0.1-4.3,0.5-8.7,0.2-13c-0.4-6.5-7.6-11.2-12.7-9.7l-0.2,0.1c-4.4,0.4-7.1,2.9-8.7,6.8l-0.4,0c0.1,0.1,0.2,0.1,0.3,0.2
				c-0.2,4-0.5,8.1-0.7,12.1c-0.1,1.4-0.1,2.8-0.1,4.2c-0.2,0.6-0.3,1.1-0.5,1.7c-0.9,0.2-1.8,0.5-2.6,0.7c-0.5-7-1.1-13.5-1.6-20.1
				c-0.7-0.8-1.3-1.7-2-2.5c-5.6-5.1-10.8-5.1-16.6-0.1c-0.2,0.3-0.4,0.5-0.6,0.8c-0.2,0.3-0.3,0.6-0.5,0.9
				c-0.1,0.1-0.2,0.2-0.2,0.3c-2.2,4.3-1.5,9-1.6,13.5c0,1.5-0.1,3.1-0.1,4.6c-0.8,0.5-1.6,0.9-3,1.7v-28l0,0c0.8,0,1.7,0,2.5,0
				c0.3,0.5,0.6,1,0.9,1.5c0.4,0,0.8,0.1,1.2,0.2c1.9-0.8,3.7-1.9,5.6-2.3c5.5-1.2,10.6-0.2,14.5,4.2c0.4,0.5,1,0.8,1.5,1.2
				c0.2,0.4,0.5,0.8,0.7,1.2C276.6,345.5,276.9,345.2,277.2,344.9L277.2,344.9z"/>
			<path class="st0" d="M330.6,339.9c6,2,10.4,7.6,10.6,13.6c0.3,5.8-3.9,12.2-9.5,14.6c-4.8,2-12.2,0.5-16-3.4
				c-4.4-4.4-5.6-9.6-3.7-15.5c1.6-4.8,4.4-8.3,9.6-9.3C324.7,339.8,327.6,339.8,330.6,339.9L330.6,339.9z M331.4,363.8
				c6.3-3.4,8.5-12.4,2.3-17.9c-0.2-0.2-0.4-0.4-0.6-0.6c-0.3-0.3-0.7-0.5-1-0.8c-0.6-0.3-1.1-0.6-1.7-0.9
				c-3.9-1.3-7.6-0.9-10.9,1.6c-3.1,2.4-4.9,5.7-4.3,9.7c0.7,5,3.6,8.4,8.5,9.9c1.5,0,3.1,0.1,4.6,0.1c0.7-0.2,1.3-0.3,2-0.5
				C330.6,364.2,331,364,331.4,363.8L331.4,363.8z"/>
			<path class="st0" d="M348,345.3c0.1-1.9,0.2-3.7,0.3-5.8c1.8-0.4,3.4-0.9,3.7,1.6c0,0.6,0,1.1,0,1.7c0.6-0.4,1.2-0.7,1.8-1.1
				c0.7-0.3,1.5-0.7,2.2-1c7.8-5.1,19,0.4,21.1,8.3c0.2,0.8,0.5,1.7,0.8,2.5c0.1,0.3,0.2,0.5,0.3,0.8c0,4.5,0.1,9,0,13.5
				c0,0.9-1,1.8-1.6,2.7c-0.7-0.5-1.4-1-2.1-1.5c-0.1-1.3-0.1-2.7-0.2-4c0-1,0-2,0-3c0-2.1-0.1-4.2-0.1-6.3c-0.6-6.3-3-8.9-8.6-11.1
				c-4.7-1.9-13.4,3.3-13.4,9.1c0,4.6,0,9.2-0.1,13.8c-0.1,3-0.5,3.2-3.8,2.1c-0.1-1.6-0.2-3.2-0.3-4.7c0-1,0-2,0-3
				c0.1-0.3,0.1-0.6,0.2-0.9l-0.2-5.3c0-2.1,0-4.2,0-6.3c0-0.5,0-0.9,0-1.4L348,345.3L348,345.3z"/>
			<path class="st0" d="M208,325.2c0.1,11.5,0.1,23,0.2,34.5c0,1.4,0.2,2.8,0.3,4.2c0.2,0.2,0.4,0.4,0.6,0.6
				c0.5,0.2,1.1,0.3,1.6,0.4c5.2,0.2,10.4,0.3,15.6,0.4c0.7,0.7,1.4,1.3,2.4,2.3c-1.3,0.5-1.8,0.8-2.4,0.8c-6.6,0-13.3,0-19.9,0
				c-0.7,0-1.4-0.5-2-0.7c0-0.8,0-1.6,0-2.4c0-1-0.1-2.1-0.1-3.1c0.1-0.3,0-0.5-0.2-0.7c0.1-3.8,0.4-7.7,0.4-11.5
				c0-6.7-0.1-13.4-0.1-20.1c0-1.9,0.1-3.8,0.3-6.4c1.2,0.3,2.1,0.5,3.1,0.7C207.7,324.7,207.8,324.9,208,325.2L208,325.2z"/>
			<path class="st0" d="M238.2,341.5c0,8.7,0,17.5,0,26.2c-1.2,0-2.4,0-3.5,0l-0.3,0.1c0-0.3,0-0.5,0-0.8c0-1.6,0-3.2,0-4.7
				c0-0.5,0-1,0-1.5c0-1,0.1-2.1,0.1-3.2c0-3.6,0-7.2,0-10.8c0-1-0.1-2.1-0.1-3.2c0-0.5,0-1,0-1.4c0.1-0.3,0.3-0.5,0.4-0.8
				C235.9,341.5,237.1,341.5,238.2,341.5L238.2,341.5z"/>
			<path class="st0" d="M331.6,325c1.1,1.2,1.9,2.1,2.9,3.1c-2.9,2.7-4.9,6.5-10.6,6.3C326.6,331,328.9,328.2,331.6,325L331.6,325z"
				/>
			<path class="st0" d="M240.8,330.7c-1.8,1.5-2.8,2.9-4.1,3.2c-1.8,0.4-3.6-1.1-3.3-2.7c0.2-1.4,2-2.9,3.4-3.4
				C237.5,327.5,239,329.3,240.8,330.7z"/>
			<path class="st1" d="M249.2,339.8v28c1.4-0.8,2.2-1.2,3-1.7c0.8,3.1-1.5,2.3-3.8,2.8v-11.2c0-3.6,0-7.2,0-10.9
				C248.6,344.5,248.9,342.2,249.2,339.8z"/>
			<path class="st1" d="M226.2,365.4c-5.2-0.2-10.4-0.3-15.6-0.4C215.8,365.1,221,365.2,226.2,365.4z"/>
			<path class="st2" d="M234.5,346.9c0,3.6,0,7.2,0,10.8C234.5,354.1,234.5,350.5,234.5,346.9z"/>
			<path class="st2" d="M248.4,346.9c0,3.6,0,7.2,0,10.9C248.4,354.1,248.4,350.5,248.4,346.9z"/>
			<path class="st1" d="M238.2,341.5c-1.2,0-2.3,0-3.5,0c0.6-0.8,1.2-1.5,1.8-2.3C237.1,340,237.7,340.7,238.2,341.5L238.2,341.5z"
				/>
			<path class="st1" d="M330.6,339.9c-3,0-6-0.1-9-0.1C324.7,339.8,327.6,339.8,330.6,339.9z"/>
			<path class="st3" d="M348,347.6c0,2.1,0,4.2,0,6.3C348,351.8,348,349.7,348,347.6z"/>
			<path class="st3" d="M374.2,353.8c0,2.1,0.1,4.2,0.1,6.3C374.3,358,374.2,355.9,374.2,353.8z"/>
			<path class="st1" d="M353.8,341.7c-0.6,0.4-1.2,0.7-1.8,1.1c0-0.6,0-1.1,0-1.7c0.6,0.1,1.1,0.1,1.7,0.2
				C353.7,341.4,353.8,341.6,353.8,341.7L353.8,341.7z"/>
			<path class="st3" d="M348,363.1c0.1,1.6,0.2,3.2,0.3,4.7C348.2,366.2,348.1,364.6,348,363.1z"/>
			<path class="st3" d="M374.3,363.1c0.1,1.3,0.1,2.7,0.2,4L374.3,363.1z"/>
			<path class="st3" d="M271.8,346.1c0.7,0.8,1.3,1.7,2,2.5C273.1,347.8,272.5,346.9,271.8,346.1z"/>
			<path class="st1" d="M234.7,367.7c1.2,0,2.4,0,3.5,0C237.1,369.2,235.9,369.1,234.7,367.7z"/>
			<path class="st1" d="M295,339.9c-1-0.3-2.1-0.5-3.1-0.8C292.9,339.3,294,339.6,295,339.9z"/>
			<path class="st1" d="M277.2,344.9c-0.3,0.3-0.6,0.6-0.9,0.9c-0.2-0.4-0.5-0.8-0.7-1.2C276.1,344.7,276.7,344.8,277.2,344.9z"/>
			<path class="st1" d="M251.7,339.8c-0.8,0-1.7,0-2.5,0C250.1,339.8,250.9,339.8,251.7,339.8z"/>
			<path class="st2" d="M204.2,365.4c0,0.8,0,1.6,0,2.4C204.3,367,204.2,366.2,204.2,365.4z"/>
			<path class="st3" d="M353.8,341.7c0-0.1-0.1-0.3-0.1-0.4c0.8-0.2,1.6-0.4,2.3-0.7C355.3,341,354.6,341.3,353.8,341.7L353.8,341.7
				z"/>
			<path class="st2" d="M253.9,341.5c-0.4,0-0.8-0.1-1.2-0.2C253.1,341.4,253.5,341.5,253.9,341.5z"/>
			<path class="st1" d="M254.6,346.8c0.2-0.3,0.4-0.5,0.6-0.8C255,346.3,254.8,346.6,254.6,346.8z"/>
			<path class="st1" d="M286.4,339.2l-1.9,0.5L286.4,339.2z"/>
			<path class="st1" d="M278,367.9c0.2-0.6,0.3-1.1,0.5-1.7C278.4,366.8,278.2,367.4,278,367.9z"/>
			<path class="st1" d="M208,325.2c-0.1-0.3-0.3-0.5-0.4-0.8C207.7,324.7,207.8,324.9,208,325.2z"/>
			<path class="st1" d="M289.5,338.6c-0.3,0.2-0.6,0.3-1,0.5C288.9,338.9,289.2,338.7,289.5,338.6z"/>
			<path class="st1" d="M291.9,339.1c-0.3-0.2-0.5-0.3-0.8-0.5C291.4,338.8,291.6,338.9,291.9,339.1z"/>
			<path class="st3" d="M288.1,343l0.2-0.1C288.2,342.9,288.2,342.9,288.1,343z"/>
			<path class="st3" d="M348,345.3l0,0.9c-0.1-0.2-0.2-0.4-0.2-0.7C347.8,345.5,347.9,345.4,348,345.3z"/>
			<path class="st1" d="M253.9,348.1c0.1-0.1,0.1-0.2,0.2-0.3l0.1,0.3L253.9,348.1z"/>
			<path class="st1" d="M304.8,352.3c-0.1-0.3-0.3-0.7-0.5-1C304.5,351.6,304.6,352,304.8,352.3z"/>
			<path class="st3" d="M378.3,352.3c-0.1-0.3-0.2-0.5-0.3-0.8C378,351.8,378.2,352,378.3,352.3z"/>
			<path class="st3" d="M348.2,359.2c-0.1,0.3-0.1,0.6-0.2,0.9C348.1,359.8,348.1,359.5,348.2,359.2z"/>
			<path class="st4" d="M203.9,361.7c0.2,0.2,0.3,0.4,0.2,0.7c-0.1-0.1-0.2-0.3-0.3-0.4C203.8,361.9,203.9,361.7,203.9,361.7
				L203.9,361.7z"/>
			<path class="st1" d="M278.7,343.8c-0.3,0.2-0.6,0.4-0.9,0.6C278.1,344.3,278.4,344.1,278.7,343.8z"/>
			<path class="st1" d="M279.3,349.9c-0.1-0.1-0.2-0.1-0.3-0.2l0.4,0L279.3,349.9L279.3,349.9z"/>
			<path class="st1" d="M323.6,364.8c1.5,0,3.1,0.1,4.6,0.1C326.7,364.9,325.1,364.9,323.6,364.8z"/>
			<path class="st3" d="M332,344.5c-0.6-0.3-1.1-0.6-1.7-0.9C330.9,343.9,331.5,344.2,332,344.5z"/>
			<path class="st1" d="M330.2,364.5c0.4-0.2,0.8-0.5,1.2-0.7C331,364,330.6,364.2,330.2,364.5z"/>
			<path class="st3" d="M333.7,345.8c-0.2-0.2-0.4-0.4-0.6-0.6C333.3,345.5,333.5,345.7,333.7,345.8z"/>
		</g>
		<g>
			<path class="st5" d="M267.9,223.8c-0.1,3.5-0.3,7-0.3,10.4c0,23.1,0,46.2,0,69.2c0,1-0.1,2-0.1,3.2h-4.7v-94.3
				c3.9-1.2,5.9,0.2,7.8,3.6c10.3,18.2,20.9,36.4,31.4,54.5c0.6,1.1,1.3,2.1,2.3,3.6c1.6-2.6,2.8-4.6,4-6.7
				c9.9-17.2,19.9-34.3,29.6-51.5c1.8-3.3,3.8-4.6,7.5-3.4v94.3h-4.8c0-1.3,0-2.7,0-4c0-24,0-48,0-72c0-1.5-0.1-3.1-0.2-4.6
				c0-0.8,0.1-1.6,0.1-2.3l-0.2-1.3c-0.3,0.3-0.5,0.6-0.8,0.9c-0.6,0.9-1.1,1.7-1.7,2.6c-8,13.8-16,27.5-24.1,41.3
				c-3.1,5.3-6.1,10.6-9.5,16.4c-0.9-1.3-1.6-2.3-2.2-3.4c-10.5-18.1-21-36.2-31.5-54.3c-0.5-0.9-1.2-1.7-1.8-2.5
				c-0.2-0.4-0.4-0.8-1-1.9L267.9,223.8L267.9,223.8z"/>
			<path class="st6" d="M560.5,271.8v34.9h-4.8c0-1-0.2-2.1-0.2-3.2c0-11.2,0-22.4,0-33.6c0-6.1-2-11.3-6.8-15.3
				c-8.4-7.1-21.5-5.1-27.3,4.2c-0.8,1.3-1.1,3.1-1.1,4.7c-0.1,13.1,0,26.3-0.1,39.4c0,1.2,0,2.5,0,3.8h-4.7v-94.6
				c1.4-0.1,2.7-0.1,4.5-0.2v39.8c2.7-1.6,4.7-3.1,7-4.2c12.2-5.7,30-0.4,32.8,16.9c0.2,1.1,0.4,2.3,0.6,3.4
				C560.5,269.2,560.5,270.5,560.5,271.8L560.5,271.8z"/>
			<path class="st5" d="M491.7,293.5c1.6,0.6,3.1,1.1,4.5,1.7c-5.2,9.2-18.9,15.6-32.2,12.9c-13.3-2.6-24.5-14.6-25.9-27.4
				c-2.1-19.5,10-30.9,20.8-35.1c13.5-5.2,28.6-0.7,37.5,11.2c-1.5,0.6-3,1.2-4.7,2c-6.2-7-14-10.6-23.5-9.9
				c-7.4,0.5-13.7,3.7-18.5,9.3c-9.6,11.1-8.7,27.5,1.8,37.7C461.2,305.3,479,307.3,491.7,293.5L491.7,293.5z"/>
			<path class="st6" d="M411.8,248.7h10.6v5.5h-10.7c-0.2,0.2-0.4,0.4-0.6,0.6c-0.1,15.3-0.1,30.7-0.2,46c0,1.9,0,3.8,0,6
				c-1.6,0.1-3,0.1-4.9,0.2c-0.7-17.6-0.3-35-0.2-52.9h-11.7v-5.4h11.9v-24.6h5v23.7C411.4,248.1,411.6,248.4,411.8,248.7
				L411.8,248.7z"/>
			<path class="st6" d="M369.5,249h4.3v57.8c-1.3,0.1-2.6,0.2-4.3,0.3V249z"/>
			<path class="st5" d="M366.8,233.2c0-2.9,2.2-5,5.2-4.9c2.6,0.1,5,2.4,5,4.9c0.1,2.5-2.6,5.2-5.1,5.3
				C369.2,238.5,366.7,235.9,366.8,233.2L366.8,233.2z"/>
			<path class="st7" d="M340.6,223.8c-0.4-0.1-0.7-0.2-1-0.4c0.3-0.3,0.5-0.6,0.8-0.9L340.6,223.8L340.6,223.8z"/>
			<path class="st3" d="M267.9,223.8v-2.2c0.6,1.1,0.8,1.5,1,1.9C268.6,223.6,268.2,223.7,267.9,223.8z"/>
		</g>
		<g>
			<path class="st8" d="M315.3,59.5c0.2,0,0.4,0,0.5,0.1c-0.1,1.7,1.1,1.7,2.3,1.7c0.9,1,1.9,2.7,2.8,2.7c3.2,0,5.4,1.5,7.7,3.4
				c1.2,1,2.3,2.1,3.5,3c0.9,0.7,2,1.2,3,1.7c0.2,0.3,0.5,0.5,0.7,0.8l0,0c0.2,0.2,0.5,0.5,0.7,0.7c2.1,3.9,4,7.9,6.4,11.5
				c1.5,2.2,2.1,4.5,2.2,7c-2.6,0.5-5.2,1.1-7.9,1.6c-4.6-1-8.7,1.8-13.1,1.8c-0.2,0-0.4,0.8-0.6,1.2c-0.2,1-0.7,2.1-0.5,3.1
				c2.7,9.9,8.4,17.6,17.4,22.6c-0.1,0.7-0.3,1.4-0.5,2.2c-8-2.4-16.2-0.5-23.9-3c-3-1-6.3-1-9.4-1.7c-7-1.6-14-3-19.8-7.8
				c-2.3-1.9-4.9-3.3-7-5.3c-2.5-2.4-4.7-5.1-7.1-7.9c-0.1,0.2-0.6,0.9-1.8,2.3c-0.4-2-0.7-3.1-0.9-4.3c-0.6-2.8-0.8-5.8-3.9-7.2
				c-0.4-2.9,1-6.1-1.5-8.5c0-1.5-0.1-3.1,0.1-4.6c0.2-1,0.8-2.7,1.5-2.9c2.5-0.6,3-2.8,4.2-4.4c0.1-0.2,0.2-0.5,0.2-0.7
				c2-4,6-4.9,9.7-6c2.6-0.8,5.6-0.7,7.9-1.8c5.7-2.8,11.6-3,17.6-2.8c1,0,2.3-0.1,3,0.4C311.1,60.3,313.2,59.7,315.3,59.5
				L315.3,59.5z"/>
			<path class="st9" d="M323.7,96.8c0.2-0.4,0.4-1.2,0.6-1.2c4.5,0,8.5-2.8,13.1-1.8c-1,0.4-1.9,0.9-3,1.3c1.5,3.3,0.9,7.4,4.8,9.4
				c4.6-3.9,9-7.8,13.5-11.6c-0.1-0.2-0.2-0.5-0.3-0.7h-3.3c0-0.2,0-0.4,0-0.6c5.1-0.9,10.2-1.7,15.3-2.6c0.3,0.1,0.7,0.1,1,0.2
				c0.2,0.6,0.3,1.5,0.7,1.6c4.6,1.8,9.3,3.5,14,5c1.8,0.6,2.9-0.5,2.9-2.5c0-2.4,0-4.9,0-7.3c1.5-0.1,3-0.2,4.6-0.3
				c0.3,5.1,0.1,10-1.7,15c-3.6,9.5-10.4,15-19.8,17.7c-0.8,0.5-1.6,0.9-2.3,1.4c-3.4-0.2-6.7-0.5-10.1-0.7c-0.5-0.2-1-0.5-1.6-0.7
				c-12.4-2.5-19.3-10.6-23-22.5C327.4,96.4,325.5,96.6,323.7,96.8L323.7,96.8z M362.2,95.5c0.9,5.7,1.6,10.9,2.7,16.1
				c0.1,0.7,2.2,1.6,3,1.3c4.8-2,8.8-5,11.7-9.5c0.9-1.5,0.8-2.7-1-3.4c-4.2-1.5-8.3-3.2-12.5-4.6C364.9,95.2,363.7,95.5,362.2,95.5
				L362.2,95.5z M342.4,108.4c5,4.6,10,6.6,15.9,6.3c1.5-0.1,2.6-0.7,2.3-2.3c-0.8-4.5-1.5-9-2.5-13.5c-0.5-2.1-2.1-2.7-3.8-1.3
				C350.4,101,346.6,104.5,342.4,108.4L342.4,108.4z"/>
			<path class="st10" d="M366.2,118.6c9.4-2.7,16.2-8.1,19.8-17.7c1.9-5,2-9.9,1.7-15c0.2,0,0.3-0.1,0.5-0.1
				c0.4-0.4,0.8-0.9,1.2-1.3c0.7-0.1,1.5-0.2,2.2-0.3c0.5,0.1,1.1,0.2,1.6,0.3c0.5,0.6,0.9,1.1,1.4,1.7c0,0.4,0,0.9,0,1.3
				c-0.2,0.6-0.6,1.1-0.6,1.7c0,4.9-0.9,9.6-2.8,14.1c-0.3,0.7,0,1.7,0.1,2.6c0,0.2,0,0.4-0.2,0.5c-1.8,0.7-5,5.4-5.7,8.4v0
				c-0.2,0.3-0.5,0.5-0.8,0.8h0c-1.2,0.4-2.5,0.5-3.4,1.1c-3.8,3-7.1,6.9-12.6,6.7c-0.3,0-0.6,0.5-1,0.5c-1.8,0.1-3.6,0.2-5.4,0.3
				c-0.5,0-1.1-0.2-1.6-0.2c-3.3,0.2-6.6,1.1-9.7,0.5c-1.7-0.3-2.9-0.1-4.3,0.3c-1,0-2,0-3,0c-1-0.8-2.1-1.5-3.1-2.3
				c-9-5-14.7-12.7-17.4-22.6c-0.2-0.9,0.3-2,0.5-3.1c1.8-0.2,3.7-0.5,5.6-0.8c3.6,11.9,10.5,20.1,23,22.5c0.2,0.9,0.3,2,1.6,0.7
				c3.4,0.2,6.7,0.5,10.1,0.7C365,120.1,366.1,120.2,366.2,118.6L366.2,118.6z"/>
			<path class="st10" d="M338.9,33.5c0.1,0.2,0.2,0.4,0.2,0.6c0.8,3.3,1.5,6.6,2.5,9.9c1,3.2,0.7,4.4-1.9,5
				c-0.2-0.3-0.5-0.5-0.7-0.8c0-1.1-0.1-2.2-0.1-2.5c-1.6-1.6-2.7-2.7-3.8-3.7c-1.1-1-1.8-2.9-3.9-2.2h0c-1.3-3-5.5-6-8.4-6.4
				c-2.4-0.4-4.9-0.9-7.1-1.9c-2.5-1.2-4.6-3-7-4.5c-3.3-2.1-4.3-6.9-1.6-8.6c1.7-1.1,3.9-1.8,5.9-1.9c5.3-0.3,9.9,1.7,14.2,4.9
				c1.5,1.1,2.8,3.1,5.1,2.6l0,0c-0.3,2.2-0.5,4.3,2.6,5c0.7,0.2,1.2,1.4,1.9,2.2C337.5,31.9,338.2,32.7,338.9,33.5z"/>
			<path class="st11" d="M373.1,24.9c0.2-0.3,0.5-0.5,0.7-0.8c3.4-0.2,3.9-0.8,4.5-4.9h0.1c1.7,0.3,3.3,0.6,4.5-1
				c1.2-1.6,2.8-1.9,4.7-1.9c2.6,0.1,5.3-0.2,7.9,0.1c1.7,0.2,3.5,0.8,4.9,1.8c2,1.3,0.4,3.4,0.6,5.2l0,0c-1,0-2.3-0.4-3.1,0
				c-2.5,1.4-4.7,3.1-7.1,4.5c-2.3,1.4-4.7,3.2-7.2,3.7c-3.5,0.7-6.4,1.9-9,4.3c-0.8,0.8-1.8,1.8-2.7,1.9c-3.8,0.3-3.9,3-4.1,5.7
				l0-0.1c-0.2,0.3-0.4,0.6-0.6,0.9l-0.1,0.1c-1.1-0.3-2.2-0.6-3.3-0.9c0-0.7-0.2-1.3,0-1.7c2.6-4.5,5.3-8.9,7.9-13.4
				C372.5,27.6,372.7,26.2,373.1,24.9L373.1,24.9z"/>
			<path class="st12" d="M243,103.1c0-0.8,0.1-1.6,0.1-2.3c2.6-1,2-3.4,2.3-5.4c0.5-1.4,1.3-2.8,1.4-4.2c0.9-7.9,1.6-15.8,2.4-23.7
				c0.5-1.6,1-3.1,1.6-4.7l0.8,0c3.9,5,6.6,10.5,7.1,17.1c0.6,8-3.2,13.8-8.7,18.9c-0.2,0.2-0.4,0.3-0.6,0.5
				c-1.8,1.4-3.7,2.8-5.5,4.1C243.6,103.3,243.4,103.2,243,103.1L243,103.1z"/>
			<path class="st11" d="M249.3,67.5c-0.8,7.9-1.5,15.8-2.4,23.7c-0.2,1.4-0.9,2.8-1.4,4.2c-3.3,0.3-2.8-2.7-3.8-4.4
				c-4-6.5-2.2-13.3-0.6-20c0.4-1.5,0.8-3,1.1-4.5c0-0.2,0.1-0.4,0.2-0.5C244.8,66.2,247.4,65,249.3,67.5L249.3,67.5z"/>
			<path class="st12" d="M256.6,53.5c1.9-2.4,3.4-5.2,5.7-7c7-5.6,14.9-5,22.6,1.4c-0.6,0.1-1.1,0.2-1.6,0.3
				c-2.9,0.4-5.9,0.5-8.6,1.2c-4.9,1.2-9.8,2.9-14.6,4.3C258.9,53.7,257.8,53.6,256.6,53.5L256.6,53.5z"/>
			<path class="st13" d="M343,132.6l-0.3,0.1h-0.3c-2.7,0-5.4-0.2-8,0c-0.8,0-1.5,0.9-2.2,1.4c-0.5,0.1-1,0.2-1.6,0.4
				c-0.3,0.1-0.6,0.2-0.9,0.4c-0.9,0.1-1.9,0-2.6,0.4c-3,1.7-6.4,2.2-9.7,2.5h-6c-2.1-0.2-4.2-0.4-6.3-0.5c-1-2.7-3.2-1-4.9-1.3
				c-0.7-0.3-1.4-0.6-2.1-0.9c-0.8-0.2-1.7-0.4-2.5-0.6c-1-0.4-1.9-0.7-2.9-1.1c-0.3-0.1-0.7-0.3-1-0.4c-6.2-1.8-10.9-5.9-15.1-10.6
				c-0.5-0.5-0.9-0.9-1.4-1.4c-0.6-0.7-1.2-1.5-1.8-2.2l0-1.6c0.4,0.1,0.8,0.1,1.1,0.3c2.2,1.5,3.5,3.7,5.3,5.5
				c2.2,2.4,4.7,5.5,8.8,5.1c0.3,0,0.7,0.3,0.9,0.6c2.1,3.5,5.5,4,9.2,4c2.2-0.1,4.2-0.1,6.1,1.4c2.1,1.7,4.9,1.9,7.6,1.7
				c1.9-0.1,3.9-0.1,5.8,0c2.9,0.2,5.4-0.4,7.8-2.2c2.3-1.6,5-2.8,8.1-2.5c2.9,0.2,5.9,0.1,8.9,0.1C343,131.5,343,132.1,343,132.6
				L343,132.6z"/>
			<path class="st11" d="M260,53.8c4.9-1.5,9.7-3.1,14.6-4.3c2.8-0.7,5.8-0.8,8.6-1.2c-3,3.1-5.7,6.6-9.8,8.5
				c-3.9,0.6-7.8,1.3-11.6,2c-0.1,0-0.1,0.2-0.2,0.3c-0.8,0-1.6,0-2.4,0l0,0c-0.8-0.5-1.6-1-2.3-1.5l0,0c0-0.8,0-1.5-0.1-2.3
				C258,54.8,259.8,56,260,53.8L260,53.8z"/>
			<path class="st14" d="M332.3,23.9c-2.4,0.5-3.6-1.4-5.1-2.6c-4.2-3.1-8.9-5.2-14.2-4.9c-2,0.1-4.2,0.8-5.9,1.9
				c-2.7,1.7-1.7,6.5,1.6,8.6c2.3,1.5,4.5,3.3,7,4.5c2.2,1,4.7,1.6,7.1,1.9c2.9,0.4,7.1,3.4,8.4,6.4c-3-1.4-6.1-2.9-9.1-4.3
				c-0.2-0.1-0.5-0.2-0.7-0.3c-3.5-1.7-7.1-3.3-10.6-5c-3.1-1.6-5.7-3.8-7.2-7.1c0-1-0.1-1.9-0.1-2.9c1.5-4.3,5.4-5,9-5.4
				c7.8-0.8,14.1,2.7,19.6,7.9C332.2,23.1,332.2,23.6,332.3,23.9L332.3,23.9z"/>
			<path class="st10" d="M383.1,86.2c0,2.4,0,4.9,0,7.3c0,2-1.1,3.1-2.9,2.5c-4.7-1.5-9.4-3.3-14-5c-0.4-0.1-0.5-1.1-0.7-1.6l5.3-1
				c0.4-0.2,0.7-0.4,1-0.6c2.3-0.2,4.5-0.5,6.8-0.7c0.8-0.3,1.5-0.6,2.2-0.9C381.6,86.2,382.4,86.2,383.1,86.2L383.1,86.2z"/>
			<path class="st15" d="M315.3,59.5c-2.1,0.2-4.2,0.8-6.2-0.9c-0.6-0.5-2-0.4-3-0.4c-6-0.2-12,0-17.6,2.8c-2.4,1.2-5.3,1.1-7.9,1.8
				c-3.7,1.1-7.7,2-9.7,6l-1.5-2.6c0.9-0.7,1.7-1.6,2.6-2.1c1.8-1.1,3.6-2.2,5.6-2.9c3.9-1.3,7.9-2.8,12-3.4
				c5-0.8,10.2-0.9,15.3-1.1c1.9-0.1,3.8,0.3,5.7,0.8C312.2,58,313.7,58.8,315.3,59.5L315.3,59.5z"/>
			<path class="st15" d="M349.2,91.8c0,0.2,0,0.4,0,0.6c-1.3,0-2.5-0.1-3.8-0.1c-0.1-2.5-0.8-4.8-2.2-7c-2.4-3.6-4.3-7.6-6.4-11.5
				c-0.2-0.2-0.5-0.5-0.7-0.7l0,0c-0.2-0.3-0.5-0.5-0.7-0.8c-1-0.6-2.1-1.1-3-1.7c-1.2-0.9-2.4-2-3.5-3c-2.2-1.9-4.5-3.4-7.7-3.4
				c-0.9,0-1.9-1.8-2.8-2.7c0-0.5,0-1,0-1.5c3.7,0.5,6.8,2.5,9.8,4.5c2.8,1.8,5.6,3.9,7.8,6.4c4.2,4.8,8.1,10,10.2,16.2
				C346.6,88.8,346.8,91,349.2,91.8L349.2,91.8z"/>
			<path class="st15" d="M374.6,61.2c0.3-3.2,3.4-3.9,5.2-5.6c4.6-4.2,9.9-7,16.5-5.2c0.1,0,0.3,0,0.4,0.1c2.4,0.7,5,1.7,5.4,4.3
				c0.4,2.5-1.8,4.3-3.8,5.7c-4.5,3.2-9.5,5-15.1,5.5c0-0.5,0-1,0-1.6c1.7-0.4,3.4-0.6,5-1.2c2.9-1.1,5.9-2,8.4-3.6
				c1.5-1,2.4-3,3.5-4.6c-1.5-1-2.9-2.8-4.3-2.8c-4-0.1-8.5-1.6-11.7,2.6c-0.2,0.2-0.8,0.1-1.1,0.4c-2.3,2-4.6,4.1-6.8,6.2
				C375.7,61.3,375.1,61.3,374.6,61.2L374.6,61.2z"/>
			<path class="st0" d="M373.1,24.9c-0.4,1.3-0.6,2.6-1.3,3.8c-2.6,4.5-5.3,8.9-7.9,13.4c-0.2,0.4,0,1,0,1.7
				c1.1,0.3,2.2,0.6,3.3,0.9c-2.4,3-4.9,5.9-7.3,8.9c-0.2-1.5-0.5-3-0.7-4.6l0-0.1c0.4-1,0.9-2.1,1.3-3.1c3.7-6.5,7.3-13,11-19.5
				C371.8,25.7,372.6,25.4,373.1,24.9L373.1,24.9z"/>
			<path class="st0" d="M367.8,43.7c0.2-2.7,0.3-5.4,4.1-5.7c1-0.1,1.9-1.1,2.7-1.9c2.5-2.4,5.5-3.6,9-4.3c2.5-0.5,4.9-2.3,7.2-3.7
				c2.4-1.4,4.6-3.2,7.1-4.5c0.8-0.4,2.1,0,3.1,0c-2.2,3.5-6.2,4.2-9.4,5.9c-8,4.2-16.6,7.3-23.1,14.1
				C368.4,43.6,368.1,43.6,367.8,43.7L367.8,43.7z"/>
			<path class="st0" d="M242.2,66.5c-0.4,1.5-0.8,3-1.1,4.5c-1.5,6.7-3.3,13.5,0.6,20c1,1.7,0.5,4.7,3.8,4.4c-0.3,2,0.3,4.4-2.3,5.4
				c-0.3-0.5-0.5-1.1-0.8-1.6c0-0.2-0.1-0.5-0.3-0.6c-0.8-2.5-1.6-5-2.5-7.5c-2.6-6.9-3.1-13.8-0.2-20.8
				C239.9,68.8,241.2,67.7,242.2,66.5L242.2,66.5z"/>
			<path class="st14" d="M346.8,124.8c1.4-0.4,2.6-0.6,4.3-0.3c3.1,0.6,6.5-0.3,9.7-0.5c0.5,0,1.1,0.2,1.6,0.2
				c1.8,0,3.6-0.1,5.4-0.3c0.3,0,0.6-0.5,1-0.5c5.5,0.2,8.8-3.7,12.6-6.7c0.9-0.7,2.3-0.8,3.4-1.1c-3.7,5.1-9.1,7.7-14.8,9.8
				c-1.9,0.7-3.9,0.8-5.9,1.2c-3.7,0-7.5,0-11.2-0.1c-1-0.1-2-0.2-3-0.3l-3.1-0.8C346.8,125.2,346.8,125,346.8,124.8L346.8,124.8z"
				/>
			<path class="st0" d="M401,23.5c-0.3-1.8,1.3-3.9-0.6-5.2c-1.4-0.9-3.2-1.6-4.9-1.8c-2.6-0.3-5.3,0-7.9-0.1
				c-1.9-0.1-3.6,0.3-4.7,1.9c-1.2,1.7-2.8,1.4-4.5,1.1c3.9-3.7,8.3-5.5,13.8-5.3c3.7,0.1,6.7,1.6,9.5,3.6
				C404.3,19.5,404,21.2,401,23.5L401,23.5z"/>
			<path class="st13" d="M264.8,81.4c2.5,2.5,1.1,5.7,1.5,8.5c0,4.7-0.3,9.4,1.4,14c0.8,2.2,1.1,4.6,1.7,7c-0.5,0-1,0-1.5,0l0,0
				c-0.1-0.3-0.3-0.5-0.4-0.8c-0.1-0.5-0.2-1-0.3-1.5c-0.2-0.3-0.4-0.6-0.5-0.9c-0.2-0.7-0.3-1.3-0.5-2c-0.4-1.1-0.7-2.2-1.1-3.3
				c-0.1-0.6-0.1-1.2-0.2-1.7c0-0.2-0.1-0.4-0.3-0.5l-0.2-2.4c0-0.5,0-0.9,0-1.4c0-2.3,0.1-4.6,0.1-7c1.7-1.6,1.8-3.2-0.1-4.8
				c-0.1-0.8-0.2-1.5-0.2-2.2C264.3,81.9,264.6,81.7,264.8,81.4L264.8,81.4z"/>
			<path class="st16" d="M250.3,59.5c0.3-2.1-1.1-2.9-2.8-3.5c-2-0.7-3.9-1.5-6.6-2.5c3.4-1.7,5.6-0.2,7.9,0.4
				c1.9,0.5,3.9,0.7,5.9,1.1l0,0c-0.4,1.9,0.9,2.3,2.3,2.4l0,0c0.8,0.5,1.6,1,2.3,1.5l0,0c1,0.8,2,1.6,3,2.4
				c0.1,0.2,0.1,0.4,0.1,0.6l-1,0.2c-2.8-1.4-5.6-2.7-8.5-4.1c-1.7-0.8-2.3,0-2.5,1.5C250.5,59.5,250.4,59.5,250.3,59.5L250.3,59.5z
				"/>
			<path class="st13" d="M374.6,61.2c0.5,0,1.1,0.1,1.6,0.1c0.1,1.4,0.2,2.7,0.4,4.4c0.6,0.1,1.3,0.2,2,0.3c0,0.5,0,1,0,1.5
				c-0.4,0-0.9,0.1-1.3,0.2c-0.9,0.5-1.7,0.9-2.5,1.4c-0.2,0.1-0.4,0.1-0.6,0.1c-0.6,0.2-1.1,0.4-1.7,0.7l0,0
				c-0.3,0.2-0.5,0.5-0.8,0.7h0c-1.7,0.2-2.5-0.5-2.2-2.2c0.2-0.3,0.4-0.6,0.6-0.9c0.3-0.3,0.5-0.5,0.8-0.8c1-1.5,2-3.1,3.1-4.6
				C374.1,61.8,374.4,61.5,374.6,61.2L374.6,61.2L374.6,61.2z"/>
			<path class="st14" d="M339.8,49c2.6-0.7,2.9-1.9,1.9-5c-1-3.2-1.7-6.6-2.5-9.9c0.6,1.1,1.5,2.2,1.9,3.4c1.5,3.9,2.9,7.8,2.8,12.1
				c0.1,0.3,0.2,0.6,0.4,0.9c0,1,0.1,2,0.1,3.1c-0.7,0-1.5,0.1-2.2,0.1l0,0l-0.6-0.9C340.9,51.5,340.3,50.2,339.8,49L339.8,49z"/>
			<path class="st15" d="M264.8,81.4l-0.7,0.8c-1.9-4.5-1.1-7.8,2.4-11c0.8-0.7,1.1-1.9,1.6-2.9c0.8,0.4,1.7,0.9,2.5,1.3
				c-1.2,1.6-1.7,3.8-4.2,4.4c-0.7,0.1-1.3,1.8-1.5,2.9C264.7,78.3,264.8,79.9,264.8,81.4L264.8,81.4z"/>
			<path class="st0" d="M249.3,67.5c-1.8-2.5-4.5-1.3-6.8-1.5c1.9-2.6,4.8-3.2,7.6-4.1c0,0.1,0,0.3,0.1,0.5l0.8,0.5l0-0.1
				C250.3,64.3,249.8,65.9,249.3,67.5L249.3,67.5z"/>
			<path class="st14" d="M391.4,105.9c0-0.9-0.3-1.8-0.1-2.6c1.8-4.5,2.8-9.2,2.8-14.1c0-0.6,0.4-1.1,0.6-1.7l0.1,8.6
				C394.4,99.6,393.8,103.1,391.4,105.9L391.4,105.9z"/>
			<path class="st14" d="M338.9,33.5c-0.7-0.8-1.5-1.6-2.2-2.4c-0.6-0.7-1.1-2-1.9-2.2c-3-0.7-2.9-2.7-2.6-5
				C335.6,26.4,337.5,29.8,338.9,33.5L338.9,33.5z"/>
			<path class="st14" d="M331.2,39.8c2.1-0.7,2.8,1.1,3.9,2.2c1.1,1,2.2,2.1,3.8,3.7c0,0.2,0.1,1.4,0.1,2.5
				C336.5,45.4,333.8,42.6,331.2,39.8L331.2,39.8z"/>
			<path class="st14" d="M385.5,114.7c0.7-3,3.9-7.6,5.7-8.4C390,109.7,388.9,112.9,385.5,114.7z"/>
			<path class="st0" d="M261.7,59c0.1-0.1,0.1-0.3,0.2-0.3c3.9-0.7,7.8-1.3,11.6-2c-1.9,1-3.9,1.9-5.8,2.9c-0.5,0.1-1,0.2-1.5,0.3
				c-1.3,0-2.6-0.1-3.9-0.1C262.2,59.6,261.9,59.3,261.7,59L261.7,59z"/>
			<path class="st15" d="M267.9,110.8c0.5,0,1,0,1.5,0c1.3,2,2.6,4.1,4,6.1l0,1.6C270.3,116.8,269,113.9,267.9,110.8L267.9,110.8z"
				/>
			<path class="st15" d="M346.8,125.4l3.1,0.8c-1.6,0.7-3.3,1.1-3.7,3.5c-0.2,1.1-2.1,1.9-3.2,2.8c0-0.5,0-1,0-1.5l0,0
				c0.6-0.7,1.3-1.3,1.8-2.1C345.5,127.8,346.1,126.6,346.8,125.4L346.8,125.4z"/>
			<path class="st1" d="M359.2,49c0.2,1.5,0.5,3,0.7,4.6c-1,1.3-2,2.6-3,4c-0.1-0.1-0.2-0.2-0.4-0.4C357.5,54.4,358.3,51.7,359.2,49
				L359.2,49z"/>
			<path class="st15" d="M369.3,68.4c-0.2,1.7,0.5,2.4,2.2,2.2c-1.6,1.2-3.1,2.4-4.7,3.6c-0.2-0.1-0.4-0.3-0.6-0.5
				C367.2,71.9,368.2,70.1,369.3,68.4z"/>
			<path class="st0" d="M378.3,19.3c-0.6,4.1-1.1,4.7-4.5,4.9C375.3,22.5,376.8,20.9,378.3,19.3z"/>
			<path class="st15" d="M332.1,134c0.7-0.5,1.5-1.3,2.2-1.4c2.7-0.1,5.4,0,8,0C338.9,133.1,335.5,133.5,332.1,134L332.1,134z"/>
			<path class="st0" d="M270.6,69.6c-0.8-0.4-1.7-0.9-2.5-1.3c-0.3-0.8-0.7-1.5-1.2-2.7c1.1,0.3,1.8,0.5,2.4,0.7l1.5,2.6
				C270.8,69.1,270.7,69.3,270.6,69.6L270.6,69.6z"/>
			<path class="st15" d="M394.8,96.1l-0.1-8.6c0-0.4,0-0.9,0-1.3c0.1-0.3,0.2-0.6,0.2-1C394.8,88.9,394.8,92.5,394.8,96.1z"/>
			<path class="st15" d="M352.9,126.5c3.7,0,7.5,0,11.2,0.1C360.3,126.6,356.6,126.5,352.9,126.5z"/>
			<path class="st2" d="M383.1,86.2c-0.7,0-1.5,0-2.2,0c-0.5-0.1-1-0.1-1.5-0.2c2.4-0.5,4.8-1,7.2-1.5c0.2,0,0.3,0,0.5,0l0,0.1
				c0.4,0.4,0.8,0.8,1.2,1.2c-0.2,0-0.3,0.1-0.5,0.1C386.1,86,384.6,86.1,383.1,86.2L383.1,86.2z"/>
			<path class="st0" d="M260,53.8c-0.2,2.2-2,1.1-3.1,1.4c-0.8,0-1.5,0-2.2,0l0,0c0.6-0.5,1.3-1,1.9-1.5
				C257.8,53.6,258.9,53.7,260,53.8z"/>
			<path class="st15" d="M264.4,84.4c1.9,1.6,1.8,3.2,0.1,4.8C264.4,87.7,264.4,86,264.4,84.4z"/>
			<path class="st7" d="M261.5,62.3l1-0.2c1.4,0.8,2.7,1.6,4.1,2.5c-0.2,0.3-0.4,0.6-0.6,0.9C264.5,64.4,263,63.4,261.5,62.3
				L261.5,62.3z"/>
			<path class="st14" d="M378.6,87c-2.3,0.2-4.5,0.5-6.8,0.7c2.2-0.4,4.5-0.8,6.7-1.2C378.6,86.7,378.6,86.8,378.6,87L378.6,87z"/>
			<path class="st13" d="M383.2,64.4c0,0.5,0,1,0,1.6c-0.5,0.1-1.1,0.3-1.6,0.4c-0.5-0.2-1-0.3-1.5-0.5
				C380.3,63.8,382,64.6,383.2,64.4L383.2,64.4z"/>
			<path class="st15" d="M380.1,65.9c0.5,0.2,1,0.3,1.5,0.5c-1,0.4-2,0.8-3,1.1c0-0.5,0-1,0-1.5C379.1,66,379.6,66,380.1,65.9
				L380.1,65.9z"/>
			<path class="st14" d="M370.8,88.3l-5.3,1c-0.3-0.1-0.7-0.1-1-0.2C366.6,88.9,368.7,88.6,370.8,88.3z"/>
			<path class="st2" d="M261.7,59c0.3,0.3,0.5,0.5,0.8,0.8l-0.1,1.6c-1-0.8-2-1.6-3-2.4C260.1,59,260.9,59,261.7,59L261.7,59z"/>
			<path class="st13" d="M318.2,59.9c0,0.5,0,1,0,1.5c-1.2,0-2.4,0.1-2.3-1.7C316.6,59.7,317.4,59.8,318.2,59.9L318.2,59.9z"/>
			<path class="st15" d="M342.1,53.7c0.7,0,1.5-0.1,2.2-0.1v3C343.2,55.2,342.7,54.4,342.1,53.7L342.1,53.7z"/>
			<path class="st2" d="M250.3,59.5c0.1,0,0.3,0,0.4,0.1l1,3.1l-0.8,0l0,0.1l-0.8-0.5c0-0.1-0.1-0.3-0.1-0.5
				C250.1,61.1,250.2,60.3,250.3,59.5L250.3,59.5z"/>
			<path class="st15" d="M265.1,102.3c0.4,1.1,0.7,2.2,1.1,3.3C265.8,104.5,265.4,103.4,265.1,102.3z"/>
			<path class="st3" d="M360.5,45.8c-0.4,1-0.9,2.1-1.3,3.1C359.6,47.8,360,46.8,360.5,45.8z"/>
			<path class="st15" d="M303.4,20.3c0,1,0.1,1.9,0.1,2.9C303.5,22.2,303.4,21.2,303.4,20.3z"/>
			<path class="st15" d="M264.3,96.2c0,0.5,0,0.9,0,1.4C264.3,97.1,264.3,96.7,264.3,96.2z"/>
			<path class="st15" d="M275.1,120.8c0.5,0.5,0.9,0.9,1.4,1.4C276,121.7,275.5,121.3,275.1,120.8z"/>
			<path class="st14" d="M394.9,85.3c-0.1,0.3-0.2,0.6-0.2,1c-0.5-0.6-0.9-1.1-1.4-1.7c0.5,0,1,0,1.5,0
				C394.7,84.8,394.8,85,394.9,85.3L394.9,85.3z"/>
			<path class="st9" d="M388.2,85.8c-0.4-0.4-0.8-0.8-1.2-1.2c0.8,0,1.6,0,2.3-0.1C389,85,388.6,85.4,388.2,85.8L388.2,85.8z"/>
			<path class="st15" d="M394.7,84.5c-0.5,0-1,0-1.5,0c-0.5-0.1-1.1-0.2-1.6-0.3C392.6,84.3,393.6,84.4,394.7,84.5L394.7,84.5z"/>
			<path class="st15" d="M374.7,69.1c0.9-0.5,1.7-0.9,2.5-1.4C376.4,68.2,375.5,68.6,374.7,69.1z"/>
			<path class="st9" d="M378.6,87c0-0.2-0.1-0.4-0.1-0.5l0.8-0.5c0.5,0.1,1,0.1,1.5,0.2C380.1,86.4,379.4,86.7,378.6,87L378.6,87z"
				/>
			<path class="st15" d="M266.6,107.7c0.2,0.3,0.4,0.6,0.5,0.9C267,108.2,266.8,107.9,266.6,107.7z"/>
			<path class="st2" d="M266.3,60c0.5-0.1,1-0.2,1.5-0.3C267.3,59.8,266.8,59.9,266.3,60z"/>
			<path class="st15" d="M372.4,69.9c0.6-0.2,1.1-0.4,1.7-0.7C373.5,69.4,372.9,69.6,372.4,69.9z"/>
			<path class="st15" d="M341.5,52.8l0.6,0.9L341.5,52.8z"/>
			<path class="st15" d="M264.5,100c0.1,0.2,0.3,0.3,0.3,0.5c-0.2-0.1-0.3-0.2-0.5-0.3C264.4,100.2,264.5,100.1,264.5,100L264.5,100
				z"/>
			<path class="st1" d="M356.9,58.2c-0.3,0-0.5,0-0.8,0l0.5-1.1c0.1,0.1,0.2,0.2,0.4,0.4C356.9,57.8,356.9,58,356.9,58.2L356.9,58.2
				z"/>
			<path class="st15" d="M374.6,61.2c-0.3,0.3-0.5,0.5-0.8,0.8C374.1,61.8,374.3,61.5,374.6,61.2z"/>
			<path class="st1" d="M242.1,98.5c0.2,0.2,0.3,0.4,0.3,0.6C242.3,98.9,242.2,98.7,242.1,98.5z"/>
			<path class="st15" d="M370.8,66.6c-0.3,0.3-0.5,0.5-0.8,0.8C370.2,67.2,370.5,66.9,370.8,66.6z"/>
			<path class="st15" d="M291.6,132.7c0.3,0.1,0.7,0.3,1,0.4C292.3,133,292,132.9,291.6,132.7z"/>
			<path class="st15" d="M387,84.5c-0.2,0-0.3,0-0.5,0C386.7,84.5,386.9,84.5,387,84.5z"/>
			<path class="st15" d="M371.5,70.5c0.3-0.2,0.5-0.5,0.8-0.7C372.1,70.1,371.8,70.3,371.5,70.5z"/>
			<path class="st2" d="M321.3,35.2c0.2,0.1,0.5,0.2,0.7,0.3C321.8,35.4,321.6,35.3,321.3,35.2z"/>
			<path class="st0" d="M367.3,44.5c0.2-0.3,0.4-0.6,0.6-0.9C367.7,43.9,367.5,44.2,367.3,44.5z"/>
			<path class="st14" d="M384.8,115.5c0.2-0.3,0.5-0.5,0.8-0.8C385.3,115,385,115.3,384.8,115.5z"/>
			<path class="st15" d="M267.4,110c0.1,0.3,0.3,0.5,0.4,0.8C267.7,110.6,267.6,110.3,267.4,110z"/>
			<path class="st15" d="M344.2,50.5c-0.1-0.3-0.2-0.6-0.4-0.9C344,49.9,344.1,50.2,344.2,50.5z"/>
			<path class="st17" d="M273.3,117c-1.3-2-2.6-4.1-4-6.1c-0.5-2.3-0.8-4.7-1.7-7c-1.7-4.6-1.4-9.3-1.4-14c3,1.5,3.2,4.5,3.9,7.2
				c0.3,1.1,0.5,2.3,0.9,4.3c1.1-1.5,1.6-2.2,1.8-2.3c2.4,2.7,4.6,5.5,7.1,7.9c2.1,2,4.8,3.5,7,5.3c5.8,4.7,12.8,6.1,19.8,7.8
				c3.1,0.7,6.4,0.7,9.4,1.7c7.8,2.5,16,0.5,23.9,3c0.2-0.8,0.3-1.5,0.5-2.2c1,0.8,2.1,1.5,3.1,2.3c-0.3,2.1-0.5,4.1-0.8,6.2l0,0
				c-3,0-5.9,0.2-8.9-0.1c-3.1-0.3-5.8,0.9-8.1,2.5c-2.5,1.8-4.9,2.3-7.8,2.2c-1.9-0.1-3.9-0.1-5.8,0c-2.7,0.2-5.5,0-7.6-1.7
				c-1.9-1.5-4-1.5-6.1-1.4c-3.7,0.1-7.1-0.4-9.2-4c-0.2-0.3-0.6-0.6-0.9-0.6c-4.1,0.4-6.6-2.8-8.8-5.1c-1.7-1.8-3.1-4-5.3-5.5
				C274.1,117.1,273.7,117.1,273.3,117L273.3,117z"/>
			<path class="st10" d="M345.3,92.2c1.3,0,2.5,0.1,3.8,0.1h3.3c0.1,0.2,0.2,0.5,0.3,0.7c-4.5,3.9-8.9,7.7-13.5,11.6
				c-3.9-2-3.3-6.1-4.8-9.4c1.1-0.5,2-0.9,3-1.3C340.1,93.3,342.7,92.8,345.3,92.2L345.3,92.2z"/>
			<path class="st13" d="M336,73c0.2,0.2,0.5,0.5,0.7,0.7C336.4,73.5,336.2,73.2,336,73z"/>
			<path class="st13" d="M335.2,72.1c0.2,0.3,0.5,0.5,0.7,0.8C335.7,72.7,335.4,72.4,335.2,72.1z"/>
			<path class="st10" d="M362.2,95.5c1.6,0,2.8-0.3,3.8,0c4.2,1.4,8.3,3,12.5,4.6c1.8,0.7,2,1.9,1,3.4c-2.9,4.4-6.9,7.5-11.7,9.5
				c-0.7,0.3-2.8-0.7-3-1.3C363.8,106.4,363.1,101.1,362.2,95.5L362.2,95.5z"/>
			<path class="st10" d="M342.4,108.4c4.3-3.9,8.1-7.4,12-10.8c1.6-1.4,3.3-0.9,3.8,1.3c1,4.5,1.7,9,2.5,13.5
				c0.3,1.7-0.8,2.3-2.3,2.3C352.4,115,347.3,113,342.4,108.4L342.4,108.4z"/>
			<path class="st14" d="M366.2,118.6c-0.1,1.6-1.2,1.6-2.3,1.4C364.6,119.5,365.4,119.1,366.2,118.6z"/>
			<path class="st14" d="M353.8,119.3c-1.2,1.3-1.4,0.2-1.6-0.7C352.7,118.9,353.2,119.1,353.8,119.3z"/>
			<path class="st13" d="M343,131c0.3-2.1,0.5-4.1,0.8-6.2c1,0,2,0,3,0c0,0.2,0,0.4,0,0.6c-0.7,1.2-1.3,2.4-2,3.5
				C344.3,129.7,343.6,130.3,343,131L343,131z"/>
			<path class="st2" d="M254.7,55.1c0.8,0,1.5,0,2.2,0c0,0.8,0,1.5,0.1,2.3C255.5,57.4,254.3,57.1,254.7,55.1L254.7,55.1z"/>
			<path class="st2" d="M259.4,59c-0.8-0.5-1.6-1-2.3-1.5C257.8,58,258.6,58.5,259.4,59z"/>
			<path class="st8" d="M380.1,65.9c-0.5,0-1,0-1.5,0.1c-0.7-0.1-1.4-0.2-2-0.3c-0.1-1.6-0.2-3-0.4-4.4c2.3-2.1,4.5-4.1,6.8-6.2
				c0.3-0.2,0.9-0.1,1.1-0.4c3.2-4.2,7.7-2.7,11.7-2.6c1.5,0,2.9,1.8,4.3,2.8c-1.2,1.6-2,3.6-3.5,4.6c-2.6,1.6-5.6,2.6-8.4,3.6
				c-1.6,0.6-3.3,0.8-5,1.2C382,64.6,380.3,63.8,380.1,65.9L380.1,65.9z"/>
			<path class="st12" d="M250.1,62.4l0.8,0.5L250.1,62.4z"/>
			<path class="st15" d="M300.2,135.8c1.6,0.3,3.8-1.4,4.9,1.3C303.4,136.6,301.8,136.2,300.2,135.8z"/>
			<path class="st4" d="M329.6,134.7c0.3-0.1,0.6-0.2,0.9-0.4C330.2,134.5,329.9,134.6,329.6,134.7z"/>
			<path class="st15" d="M295.5,134.2c0.8,0.2,1.7,0.4,2.5,0.6C297.2,134.6,296.4,134.4,295.5,134.2z"/>
			<path class="st4" d="M311.3,137.6h6C315.3,137.6,313.3,137.6,311.3,137.6z"/>
		</g>
		<g>
			<path class="st6" d="M81.2,219.2c1.4,3.6,3,7.1,7.1,8.5c0,1.1,0,2.1,0,3.2c-2.4-0.4-4.8-0.9-7.1-1.3c0.4-0.6,0.8-1.1,1.3-1.7
				c-2.2-0.5-3.8-3.1-6.5-1.7c-0.9-1-1.8-2-2.6-2.9c1.3-0.5,2.4-1.5,1.5-2.8c-1.3-1.9-2.5-4.3-5.6-3.3c-4.4-7.2-6.4-15.3-8.1-23.5
				c-3.4-15.8-4.4-31.8-3.6-47.9C58.8,121,64,97.1,72.7,74.1c0.8-2,1.8-3.9,2.6-5.9c-0.3-0.2-0.7-0.4-1-0.5
				c-5.7,0.8-11.4,1.5-17.1,2.5c-9.3,1.5-18.6,2.7-27.9,2c-3.8-0.3-7.6-1.3-11.2-2.4c-1.5-0.5-2.8-2-4.1-3c5.5,1.8,11.1,3,16.8,2.7
				c6.2-0.3,12.5-0.8,18.7-1.2c0.8,0,1.5-0.1,2.3-0.1c0.4-0.1,0.9-0.3,1.3-0.4c-0.5-0.2-0.9-0.4-1.4-0.5c-0.8,0-1.6,0-2.4,0
				c-11.8-1.5-23.6-2.9-35.4-4.4v-4.4c4.2-2.7,8.9-2.1,13.4-1.4c20.1,3.1,40.2,4.9,60.6,4.2c2.2-0.1,4.3-0.5,6.5-0.8
				c0.5,0,1,0,1.6,0c9.1-0.3,17.9-2.2,26.6-4.9c1.6-0.5,3.2-1,4.8-1.5c0.3,0.3,0.6,0.6,0.9,0.9c-8.3,4.9-17.3,7.7-26.7,9.6
				c-3.1,0.7-6.4,0.8-9.4,1.7c-1.2,0.3-2.6,1.7-3,2.9c-2,6.6-4.3,13.2-5.3,20c-2.3,15.1-4.1,30.3-5.6,45.5c-1,10.4-1,20.8-1.5,31.2
				c0,0.5,0,1,0,1.5c-0.5,16.9-0.3,33.7,3.7,50.3c-0.7,0.2-1.4,0.4-2.1,0.5c0,0.2,0.1,0.5,0.1,0.7C79.4,219,80.3,219.1,81.2,219.2
				L81.2,219.2z"/>
			<path class="st5" d="M524,89.2c-0.6-0.8-1.4-1.5-1.9-2.4c-6-10.5-15.8-14.1-26.9-9.4c-4.3,1.8-8.5,4.3-12.1,7.3
				c-12.2,10.4-19.2,24-23.2,39.3c-2.6,10-3.7,20.2-3.1,30.5c1.1,0.1,2,0.2,2.9,0.4c-0.9,0.6-1.8,1.2-2.8,1.9
				c0.9,12.9,2.5,25.7,9.2,37.4c3.2,5.6,7.5,10.1,13.2,13.2c4.9,2.6,8.4,1.7,11.8-2.6c0.7-0.8,1.3-1.7,2.3-2.9c0.2,3.8-2.4,7-6,8.2
				c-6.2,1.9-12.2,1.2-17.8-2.2c-8.2-5-13.4-12.6-17.8-20.9c-4-7.6-5.8-15.9-7.6-24.2c-0.1-0.6-0.2-1.2-0.2-1.8
				c-0.3-3.5-0.7-6.9-0.8-10.4c-1-27.1,6.9-50.8,27.6-69c8.6-7.6,18.8-12.4,30.7-11c9.7,1.2,17.4,6,21.8,15.1
				C523.8,86.7,523.8,88,524,89.2L524,89.2z"/>
			<path class="st6" d="M222.1,234.7c-0.5-3.1-1-6.2-1.5-9.3c0.5-0.3,1-0.6,1.4-0.9c-0.7-0.8-1.3-1.5-2-2.3c0-0.3,0-0.5,0-0.8
				c0.7-0.5,1.4-0.9,2.2-1.4c-1-1.4-2-2.7-2.9-4c-1.4-12.9-1.5-25.7-0.4-38.6c0.1-1.5,0.1-3.1,0.1-4.6c0.1-0.3,0.2-0.6,0.2-0.9
				c0.9-1.3,1.1-2.4-0.7-3.1c2-6.2,3.7-12.5,6-18.6c1.5-3.9,3.8-7.5,6-11.1c1.6-2.5,4.1-3.8,7.2-3.7c3.6,0.1,4.4,1.5,2.9,4.9
				c-3,6.9-6.2,13.8-8.6,20.9c-2.4,7.1-3.7,14.6-3.6,22.2l-0.1,1.6c-0.1,3-0.3,6-0.5,9.1c0,3.2,0,6.4,0,9.6c0.2,2.5,0.4,5.1,0.5,7.6
				c0.3,2.6,0.7,5.2,1,7.7c0.7,5.1,1.5,10.3,2.2,15.4c-0.8,1.3-2.5,2.8-2.2,3.9c0.9,4.4,2.5,8.7,3.6,13c0.5,2.1,0.6,4.2,0.7,6.4
				c0,0.5-0.7,1-1.2,1.6c-1.5-3.2-3.3-4.7-5.4-4.7c-0.4-1.2-0.8-2.5-1.2-3.8c0.5-1.2,1-2.4,1.7-4.1c-1.3,0.1-2.2,0.2-3,0.2l-0.6-2.5
				c3.1-0.2,1.9-3,2.4-4.5C227.8,236.5,226.3,234.9,222.1,234.7L222.1,234.7z"/>
			<path class="st5" d="M371.3,181.7c-2.7,5.2-5.9,9.9-10.4,13.7c-7.4,6.2-17.3,7.1-24.6,2.3c-3.1-2-5.5-4.6-6.7-8.2
				c-0.4-1-1-1.9-1.6-2.9l0,0.1c0.2-3,0-6,0.5-8.9c2-10,6.6-18.7,14.2-25.5c4.5-4,9.7-6.9,16-6.7c4.4,0.1,8,2.1,10.5,5.6
				c2.3,3.1,3.2,6.5,1.2,10.1c-1.4,2.5-2.9,4.8-4.6,7.1c-1,1.3-2.3,1.5-3.7,0.4c-1.3-1-1.8-2-0.8-3.6c1.3-2.3,2.6-4.8,3.4-7.3
				c0.5-1.5,0.5-4.2-0.4-4.9c-1.3-0.9-3.8-0.9-5.3-0.2c-5.8,2.5-9.5,7.3-12.5,12.7c-3.9,7-5,14.5-4.2,22.4c0.5,5,3,8.5,6.9,9.1
				c2.1,0.3,4.9,0,6.6-1.1c3.5-2.3,6.6-5.2,9.6-8.2c2-2,3.4-4.5,5-6.8C370.7,181,371,181.3,371.3,181.7L371.3,181.7z"/>
			<path class="st5" d="M199.3,145.3c4.7,2,6.2,6.4,7.4,10.7c1.6,6,1.5,12.2,0.3,18.4c-0.2,1.1-0.2,2.2-0.3,3.7h2.5
				c0,0.3-0.1,0.5-0.1,0.8c-2-0.1-3.4,0.3-3.9,2.7c-0.4,1.7-1.4,3.3-2.2,4.9c-6.2,11.1-21.9,12.8-30.4,3.2c-2.7-3.1-4-6.8-4.4-10.8
				c-0.1-1.1-0.2-2.3-0.4-3.4c-0.2-1.2-0.4-2.4-0.6-3.6c2.2-9.3,6.4-17.5,13.7-23.9c2.3-2,4.9-3.4,8.1-2.2c-0.8,1.3-1.5,2.6-2.3,3.8
				c-0.4,0.5-1,0.8-1.3,1.4c-5.7,11.6-7.2,23.8-3.5,36.3c2,6.6,8.3,7.7,13.2,2.7c2.9-3,4.6-6.7,5.6-11c-1-0.5-1.9-0.9-2.8-1.4
				c0.2-0.2,0.3-0.4,0.5-0.6c0.9,0.1,1.7,0.2,3.1,0.4c0.5-4.7,1.3-9.1,1.2-13.5c0-6.1-0.2-12.4-4.2-17.6L199.3,145.3L199.3,145.3z"
				/>
			<path class="st6" d="M410.9,175.9c1.3-6.9,2.7-13.8,3.9-20.7c0.7-4,2.7-6.8,6.6-8.2c3.9-1.3,6.5,0.2,6.5,4.3
				c0,3.3-0.9,6.6-1.4,9.8l-1.2,0.9c0.3,0.3,0.7,0.5,1,0.8c-1.6,8.6-3.2,17.1-4.7,25.7c-1,5.9-2.3,11.9-1.1,17.9
				c-0.6,0.9-1.1,1.8-1.7,2.6c-6.3-1.9-8.4-6.9-8.4-12.8c0-5,0.8-10,1.3-15c0.1-0.5,0.2-1.1,0.2-1.7c0.2-0.8,0.4-1.5,0.6-2.3
				C413.9,174.9,411.4,176.5,410.9,175.9L410.9,175.9z"/>
			<path class="st5" d="M374,178.3c-0.4,0.3-0.8,0.5-1.2,0.8c-0.2-0.4-0.5-0.8-0.7-1.1c4.5-7.8,8-16.2,14.9-22.3
				c4.5-4.1,9.8-6.6,16.1-6.1c4.7,0.4,8.5,3.6,9.1,7.6c-0.1,0.1-0.3,0.2-0.3,0.2c-5.9-3.2-10.6-0.5-15,3.2
				c-6.8,5.9-10.4,13.7-11.2,22.5c-0.8,8.1,4.9,12,12.4,8.9c0.6-0.2,1.2-0.5,1.8-0.7c0.2,0.4,0.5,0.8,0.7,1.1c-5.3,4-11,4-16.7,1.4
				c-5.9-2.7-9-7.4-9.1-14c0-0.5-0.1-1-0.2-1.5c0-0.2,0-0.4,0-0.6C374.3,177.9,374.2,178.1,374,178.3L374,178.3z"/>
			<path class="st5" d="M140.6,205.4c-4-2.5-5.6-6.5-6.6-10.8c-1.2-4.7-0.4-9.5,0.4-14.1c0.9-5.2,2.2-10.2,3.2-15.4
				c0.3-1.8,0.3-3.6,0.4-5.4c0-2.3-1-3.1-3.2-2c0-0.4,0-0.8,0-1.2c6.7-5.2,12.5-1.1,14,6.2c1.2,5.8,0,11.2-1.3,16.7
				c-1.2,5.1-2.7,10.2-3.5,15.4c-0.5,3.4-0.2,6.9-0.2,10.3C142.7,205.2,141.6,205.3,140.6,205.4L140.6,205.4z"/>
			<path class="st5" d="M259.9,144.4c4.6-1.5,9.2-2.1,13.9-0.8c6.6,1.9,10.6,8.2,9.9,15c-0.2,1.4,0,2.9,0,4.5
				c-0.7,1.1-1.7,2.6-2.5,4.1c-7,12.1-16.9,20.2-30.8,22.8c-1.8,0.3-3.8-0.6-5.7-1l0,0c2.2-0.4,4.7-0.2,6.6-1.2
				c8-4.1,14.8-9.9,20-17.4c0.4-1.1,0.9-2.1,1.3-3.2c4.4-3.4,5-8.3,4.2-13.2c-1.2-7.5-5.9-10.5-13.6-9.2c-1,0.2-2,0.4-3,0.6
				C260.1,145.2,260,144.8,259.9,144.4L259.9,144.4z"/>
			<path class="st5" d="M317.3,191.2c-7.4-0.1-11.8-4.1-14.3-10.7c-2.3-5.8-3-11.9-3-18.1c0-1.2,1-3-1.2-3.5c0-0.3,0-0.5,0-0.8
				c2.4-0.2,1.5-2.4,1.9-3.6c1-3,2.4-4.2,5.6-4.2c3.4,0,4.3,1,4.1,4.4c-0.3,5.4-1,10.8-0.6,16.1c0.3,4.8,1.8,9.5,3,14.2
				c0.6,2.3,2,4.2,4.5,4.9C317.3,190.3,317.3,190.7,317.3,191.2L317.3,191.2z"/>
			<path class="st5" d="M227.1,254.9c2.1-0.1,3.8,1.5,5.4,4.7c0.5-0.6,1.2-1.2,1.2-1.6c-0.1-2.1-0.2-4.3-0.7-6.4
				c-1.1-4.4-2.7-8.6-3.6-13c-0.2-1.1,1.4-2.6,2.2-3.9c1.7,6.7,3.1,13.5,5.3,20c1.8,5.5,4.5,10.8,6.9,16.1c0.6,0.3,1.2,0.6,1.8,0.9
				c-0.6,4.3-3.5,5.9-6.8,3.1c-2.9-2.4-5.3-5.6-7.2-8.8C229.7,262.5,228.6,258.6,227.1,254.9z"/>
			<path class="st5" d="M465.2,152.6c0.9-0.8,1.8-1.9,2.8-2.4c11.4-5.4,22.4-11.6,32.5-19.3c7.6-5.8,14.5-12.4,19.5-20.7
				c3.2-5.3,5-11,4-17.3c1.2-1.3,1.4-0.3,1.7,0.7c1.1,4.3,0.2,8.5-1.3,12.5c-3.5,9.9-10.4,17.4-18.2,24
				c-11.7,9.9-25.1,16.9-39.3,22.5C466.4,152.9,465.8,152.7,465.2,152.6L465.2,152.6z"/>
			<path class="st5" d="M124.8,159.9c-2.8-2-4.6-4.5-3.6-8.1c1.2-4.5,3.6-8.2,8.2-9.9c2.3-0.9,4.7,0.9,4.7,3.5
				c0,1.8-0.5,3.8-1.2,5.5c-0.9,2.2-2.3,4.2-3.8,7c1.7-0.1,2.9-0.2,4-0.4l0.9,0.8c-2,0.8-4,1.5-5.9,2.3c-1,0.4-2.1,0.8-3.1,1.1
				C124.8,161.1,124.8,160.5,124.8,159.9L124.8,159.9z M130.7,145.9c-5,1.1-7.2,5.8-4.6,9.5C128.3,152.6,130.1,149.7,130.7,145.9z"
				/>
			<path class="st5" d="M121.1,166.1c-1.9,7.4-3.7,14.9-5.6,22.3c-2.4,9.6-5.3,19-9.9,27.8c-0.5,1-1.2,1.9-1.8,2.9
				c-0.3-0.1-0.6-0.2-0.8-0.4c0-0.5-0.1-1.2,0.1-1.6c7.1-13.7,10.4-28.5,14-43.3c0.7-3,2.2-5.9,3.4-8.8
				C120.7,165.3,120.9,165.7,121.1,166.1L121.1,166.1z"/>
			<path class="st18" d="M259.9,144.4c0.1,0.4,0.2,0.8,0.2,1.2c-12.4,5.4-18.4,16.2-23.7,27.6c-0.6,1.4-1.2,2.8-1.8,4.2
				c-0.8,0-1.5,0-2.2,0c3.7-10.9,8.9-20.8,18.1-28C253.2,147.2,256.7,146,259.9,144.4L259.9,144.4z"/>
			<path class="st5" d="M233.9,223c4,14.9,8.1,29.9,12.1,44.8l-0.7,0.4c-0.3-0.1-0.5-0.1-0.8-0.2c-2.1-7.6-4.1-15.1-6.3-22.7
				c-2.1-7.4-4.3-14.8-6.4-22.2C232.5,223.1,233.2,223.1,233.9,223z"/>
			<path class="st5" d="M222.1,234.7c4.2,0.2,5.7,1.8,4.4,5.7c-0.5,1.5,0.7,4.3-2.4,4.5C223.5,241.5,222.8,238.1,222.1,234.7
				L222.1,234.7z"/>
			<path class="st5" d="M88.3,230.8c0-1.1,0-2.1,0-3.2c3.8,0.6,6.9-1.1,9.7-3.4c0.4,0.3,0.8,0.5,1.3,0.8
				C96.4,228.5,93.1,230.9,88.3,230.8z"/>
			<path class="st19" d="M272.5,167.3c-0.4,1.1-0.9,2.1-1.3,3.2c-1,0-2.1-0.4-2.9,0c-3.2,1.5-6.4,3.1-9.6,4.8
				c-0.2-0.2-0.4-0.5-0.6-0.7C262.9,172.1,267.7,169.7,272.5,167.3L272.5,167.3z"/>
			<path class="st5" d="M434.7,185.2c-1,6-2.2,11.9-4.7,17.4c-0.3-0.1-0.7-0.2-1-0.3l4.8-17.3C434,185.1,434.4,185.2,434.7,185.2
				L434.7,185.2z"/>
			<path class="st5" d="M69.3,217c3.1-1,4.3,1.4,5.6,3.3c0.9,1.4-0.2,2.3-1.5,2.8L69.3,217z"/>
			<path class="st19" d="M153.2,203.5c2.2-3.9,4.5-7.7,6.7-11.5c-0.9,4.7-2.8,8.9-6.2,12.3C153.5,204.1,153.3,203.8,153.2,203.5
				L153.2,203.5z"/>
			<path class="st2" d="M227.9,194.2c0.1-3,0.3-6,0.5-9.1c0.7,0,1.3,0,2-0.1c-0.1,0.2-0.1,0.5-0.2,0.8c-0.2,1.3-0.5,2.5-0.7,3.8
				c0.2,1,0.4,1.9,0.6,2.9c0.1,0.2,0.1,0.3,0.2,0.5c0,0.1-0.1,0.1-0.2,0.2c-0.2,0.2-0.5,0.4-0.7,0.7c-0.2,0.1-0.4,0.2-0.4,0.4
				C228.6,194.3,228.2,194.2,227.9,194.2L227.9,194.2z"/>
			<path class="st7" d="M228.5,211.5c-0.2-2.5-0.4-5.1-0.5-7.6c0.6,0,1.1,0,1.7-0.1c0.5-0.2,0.9-0.4,1.4-0.7
				c0.1-0.3,0.1-0.5,0.2-0.8l0.3-0.1c0,1.3,0,2.5,0,3.8c-0.6-0.3-1.2-0.6-1.8-0.9c-0.1,0.8-0.2,1.6-0.4,2.5l0,3.6
				C229.1,211.2,228.8,211.4,228.5,211.5L228.5,211.5z"/>
			<path class="st19" d="M297.2,159.5c-4,1.1-8,2.2-12.1,3.3c3.4-2.4,7.2-3.4,11.1-4.2C296.6,158.9,296.9,159.2,297.2,159.5z"/>
			<path class="st16" d="M410.9,175.9c0.5,0.6,3-1,1.6,1.5c-0.5,0.8-0.9,1.6-1.4,2.4c-0.3,0.5-0.5,1-0.8,1.4
				c-0.6,0.9-1.3,1.8-1.9,2.7c-0.4-0.3-0.8-0.6-1.1-0.9C408.5,180.7,409.7,178.3,410.9,175.9L410.9,175.9z"/>
			<path class="st19" d="M436.7,173.6c1-3.5,2.3-6.8,5.4-9.2c-1.4,3-2.8,6.1-4.2,9.2C437.4,173.5,437,173.6,436.7,173.6z"/>
			<path class="st18" d="M76,226.1c2.7-1.4,4.3,1.2,6.5,1.7c-0.4,0.6-0.8,1.1-1.3,1.7C79.5,228.4,77.7,227.2,76,226.1L76,226.1z"/>
			<path class="st16" d="M408.4,184c-1.6,2-3.3,4-4.9,6c-0.1-0.5-0.2-1-0.2-1.5c1.3-1.8,2.7-3.6,4-5.4
				C407.6,183.5,408,183.7,408.4,184L408.4,184z"/>
			<path class="st18" d="M233.9,223c-0.7,0-1.4,0.1-2.1,0.1c-0.4-1.3-0.8-2.6-1.1-4c0.1-0.3,0.2-0.5,0.2-0.8c0.7,0,1.4,0,2,0
				C233.3,220,233.6,221.5,233.9,223L233.9,223z"/>
			<path class="st5" d="M232.4,177.4c0.8,0,1.5,0,2.2,0c-0.5,1.8-1,3.6-1.6,5.4c-0.1,0.4-1,0.8-1.4,0.6c-0.4-0.1-0.8-1-0.7-1.4
				C231.2,180.5,231.8,178.9,232.4,177.4L232.4,177.4z"/>
			<path class="st16" d="M124.8,159.9c0,0.6,0,1.2,0.1,1.8c-1,1.2-2,2.4-3.1,3.5c-0.3-0.3-0.6-0.6-0.9-1
				C122.2,162.8,123.5,161.3,124.8,159.9z"/>
			<path class="st5" d="M98.1,224.3c1.4-1.9,2.8-3.8,4.4-6c0.6,2.7,0.4,3-3.2,6.8C98.9,224.8,98.5,224.5,98.1,224.3z"/>
			<path class="st20" d="M243.6,188.2c-1.4-3.2,1.4-4.1,3-5.7l0.6,0.6c-0.9,1.7-1.7,3.4-2.5,5C244.3,188.2,244,188.2,243.6,188.2z"
				/>
			<path class="st5" d="M418.8,209.1c0.6-0.9,1.1-1.8,1.7-2.6c1.5,1.5,3.2,1.2,4.8,0.4c0.2,0.3,0.5,0.7,0.7,1
				C423.9,209.9,421.4,209.9,418.8,209.1L418.8,209.1z"/>
			<path class="st18" d="M229.5,211.1l0-3.6c0.7,0,1.4,0,2,0c0.2,1,0.4,2,0.6,3c-0.7,0.5-1.4,1.1-2.1,1.6
				C229.8,211.9,229.6,211.5,229.5,211.1L229.5,211.1z"/>
			<path class="st5" d="M425.3,206.9c1.1-1.4,2.2-2.7,3.3-4.1c0.7,2.4,0.5,2.8-2.6,5.1C425.8,207.6,425.5,207.2,425.3,206.9z"/>
			<path class="st18" d="M219.3,216.1c0.9,1.3,1.9,2.6,2.9,4c-0.8,0.5-1.5,1-2.2,1.4C219.7,219.7,219.5,217.9,219.3,216.1z"/>
			<path class="st18" d="M229.5,189.6c0.2-1.3,0.5-2.5,0.7-3.8c0.7,0,1.4,0,2.1,0.1c-0.2,1.3-0.5,2.6-0.7,3.9
				C230.9,189.7,230.2,189.7,229.5,189.6L229.5,189.6z"/>
			<path class="st5" d="M493.2,202.1c0.8-2.1,1.5-4.2,2.3-6.3c0.8,2.6,0.4,4.8-1.4,6.6L493.2,202.1L493.2,202.1z"/>
			<path class="st20" d="M130.9,52.5c1.4-0.7,2.7-1.5,4.1-2.2c0.1,0.3,0.3,0.5,0.5,0.8c-1.5,0.8-3,1.7-4.5,2.5L130.9,52.5
				L130.9,52.5z"/>
			<path class="st18" d="M140.6,205.4c1-0.1,2.1-0.2,3.1-0.2l2.7,2.2c-0.4,0.2-0.7,0.4-1.1,0.5C143.8,207,142.2,206.2,140.6,205.4
				L140.6,205.4z"/>
			<path class="st5" d="M229.4,193.9c0.2-0.2,0.5-0.4,0.7-0.7c0.5,0.3,1.3,0.6,1.4,1c0.1,2.1-0.1,4.2-0.1,6.4c-0.6,0-1.3,0-2-0.1
				c0.1-1.4,0.3-2.8,0.4-4.2C229.6,195.5,229.5,194.7,229.4,193.9L229.4,193.9z"/>
			<path class="st5" d="M224.7,247.4c0.8-0.1,1.7-0.1,3-0.2c-0.7,1.6-1.2,2.8-1.7,4.1C225.5,249.9,225.1,248.6,224.7,247.4
				L224.7,247.4z"/>
			<path class="st19" d="M218.5,168.9c1.8,0.7,1.6,1.8,0.7,3.1c-0.6,0-1.1,0-1.7,0C217.9,171,218.2,169.9,218.5,168.9L218.5,168.9z"
				/>
			<path class="st3" d="M186.6,149.5c0.8-1.3,1.5-2.6,2.3-3.8c0.3,0.2,0.5,0.4,0.8,0.5c0,0.6,0.1,1.3,0.1,2l0-0.1
				c-0.6,0.5-1.2,1-1.8,1.5C187.5,149.5,187.1,149.5,186.6,149.5L186.6,149.5z"/>
			<path class="st16" d="M327.9,186.7L327.9,186.7c-1,0.8-2.1,1.7-3.2,2.6C325.5,187.6,326.6,186.7,327.9,186.7z"/>
			<path class="st18" d="M220,222.3c0.7,0.8,1.3,1.5,2,2.3c-0.5,0.3-1,0.6-1.4,0.9C220.4,224.4,220.2,223.3,220,222.3L220,222.3z"/>
			<path class="st19" d="M248.4,181.1c1.2-0.9,2.4-1.8,3.6-2.6c0.2,0.2,0.4,0.4,0.5,0.6c-1.2,0.9-2.3,1.8-3.5,2.7
				C248.8,181.5,248.6,181.3,248.4,181.1L248.4,181.1z"/>
			<path class="st5" d="M229.5,189.6c0.7,0,1.4,0.1,2.1,0.1c-0.3,1,1.3,3-1.5,2.7C229.9,191.5,229.7,190.6,229.5,189.6L229.5,189.6z
				"/>
			<path class="st5" d="M403.2,188.5c0.1,0.5,0.2,1,0.2,1.5c-1,0.8-2,1.6-3,2.4c-0.2-0.4-0.5-0.8-0.7-1.1
				C400.9,190.3,402.1,189.4,403.2,188.5L403.2,188.5z"/>
			<path class="st16" d="M191.5,145.2c1.8-1.5,3.8-2,6-0.9c-0.1,0.2-0.3,0.5-0.4,0.7l-5,0.8C191.9,145.6,191.7,145.4,191.5,145.2
				L191.5,145.2z"/>
			<path class="st16" d="M500.9,166.6c0.5-1.4,1-2.8,1.5-4.1c0.3,0.1,0.6,0.2,0.9,0.3c-0.5,1.4-1,2.8-1.5,4.1
				C501.5,166.8,501.2,166.7,500.9,166.6z"/>
			<path class="st5" d="M230,212.2c0.7-0.5,1.4-1.1,2.1-1.6c0,1,0.1,2.1,0.1,3.1c-0.6,0.3-1.3,0.5-1.9,0.8
				C230.2,213.8,230.1,213,230,212.2L230,212.2z"/>
			<path class="st19" d="M254.3,176.9c1.3-0.8,2.6-1.6,3.9-2.3c0.2,0.2,0.4,0.5,0.6,0.7c-1.3,0.8-2.6,1.5-3.9,2.3
				C254.7,177.4,254.5,177.2,254.3,176.9L254.3,176.9z"/>
			<path class="st16" d="M502.9,161.3c1-0.7,2-1.4,3-2.1c0.2,0.2,0.3,0.5,0.5,0.8l-2.9,2.2L502.9,161.3L502.9,161.3z"/>
			<path class="st18" d="M230.3,214.6c0.6-0.3,1.3-0.5,1.9-0.8c0.2,1,0.4,2.1,0.7,3.1c-0.7,0-1.5,0-2.2,0
				C230.5,216.1,230.4,215.4,230.3,214.6L230.3,214.6z"/>
			<path class="st16" d="M162.7,185.2l-0.7,3.9c-0.4-0.1-0.7-0.2-1.1-0.3c0.6-1.2,1.1-2.4,1.7-3.6L162.7,185.2L162.7,185.2z"/>
			<path class="st19" d="M149.4,206.6c0.9-0.6,1.7-1.3,2.6-1.9c0.2,0.3,0.4,0.5,0.6,0.8c-1.1,0.7-2.1,1.4-3.2,2.1
				C149.5,207.2,149.5,206.9,149.4,206.6L149.4,206.6z"/>
			<path class="st5" d="M370.3,180.8c0.6-1,1.2-1.9,1.8-2.8c0.2,0.4,0.5,0.8,0.7,1.1l-1.5,2.6C371,181.4,370.6,181.1,370.3,180.8
				L370.3,180.8z"/>
			<path class="st16" d="M323.9,189.8c-1,0.4-2.1,0.7-3.1,1.1l-0.4-0.9l2.9-1.2C323.5,189.2,323.7,189.5,323.9,189.8L323.9,189.8z"
				/>
			<path class="st5" d="M231.4,207.6c-0.7,0-1.4,0-2,0c0.1-0.8,0.2-1.6,0.4-2.5c0.6,0.3,1.2,0.6,1.8,0.9L231.4,207.6L231.4,207.6z"
				/>
			<path class="st5" d="M461.3,154.2c1.3-0.5,2.6-1,3.9-1.6C464.3,154.1,463.1,154.9,461.3,154.2z"/>
			<path class="st5" d="M81.2,219.2c-0.9-0.1-1.8-0.2-2.7-0.3c0-0.2-0.1-0.5-0.1-0.7c0.7-0.2,1.4-0.4,2.1-0.5
				C80.8,218.2,81,218.7,81.2,219.2L81.2,219.2z"/>
			<path class="st7" d="M244.5,268.1c0.3,0.1,0.5,0.1,0.8,0.2v0c0,1.1,0.1,2.2,0.1,3.2l0.1,0.1c-0.6-0.3-1.2-0.6-1.8-0.9
				C244.1,269.8,244.3,268.9,244.5,268.1L244.5,268.1z"/>
			<path class="st20" d="M167.1,171.7c0.2,1.2,0.4,2.4,0.6,3.6c-0.4-0.5-0.8-0.9-1.2-1.4c0.2-0.7,0.5-1.4,0.7-2.1L167.1,171.7
				L167.1,171.7z"/>
			<path class="st20" d="M317.3,191.2c0-0.5,0-0.9,0-1.3c0.9,0.1,1.8,0.1,2.8,0.2c0,0.3,0,0.6,0.1,1
				C319.2,191.1,318.3,191.1,317.3,191.2L317.3,191.2z"/>
			<path class="st18" d="M229.4,200.5c0.6,0,1.3,0,2,0.1c0.1,0.5,0.1,1.1,0.2,1.6l-0.3,0.1c-0.6,0-1.1,0-1.7,0
				C229.4,201.7,229.4,201.1,229.4,200.5L229.4,200.5z"/>
			<path class="st5" d="M230.6,216.9c0.7,0,1.5,0,2.2,0c0,0.5,0.1,1,0.1,1.5c-0.7,0-1.4,0-2,0C230.9,217.9,230.8,217.4,230.6,216.9
				L230.6,216.9z"/>
			<path class="st5" d="M436.4,178.2c-0.3,1.2-0.6,2.4-0.9,3.6c-0.3-0.3-0.6-0.5-0.8-0.8c0.2-1,0.5-1.9,0.7-2.9
				C435.7,178.1,436.1,178.1,436.4,178.2L436.4,178.2z"/>
			<path class="st6" d="M499.1,179.3v4.1c-0.2,0-0.5,0-0.7,0c0.1-1.4,0.2-2.8,0.2-4.2L499.1,179.3L499.1,179.3z"/>
			<path class="st16" d="M189.8,148.2c0-0.6-0.1-1.3-0.1-2c0.6-0.3,1.2-0.7,1.8-1c0.2,0.2,0.4,0.4,0.6,0.6
				C191.4,146.6,190.6,147.4,189.8,148.2z"/>
			<path class="st5" d="M496.5,192.5c0.2-1.1,0.4-2.2,0.6-3.3c0.2,0,0.5,0,0.7,0l-0.6,3.9C497,192.9,496.7,192.7,496.5,192.5
				L496.5,192.5z"/>
			<path class="st6" d="M500.2,174.3c-0.1,1.2-0.2,2.4-0.3,3.6c-0.3,0-0.5,0-0.8,0c0.1-1.2,0.1-2.4,0.2-3.5
				C499.7,174.4,499.9,174.3,500.2,174.3z"/>
			<path class="st19" d="M252,178.4l2.3-1.5c0.2,0.2,0.4,0.4,0.6,0.7c-0.8,0.5-1.6,1-2.4,1.5L252,178.4L252,178.4z"/>
			<path class="st7" d="M297.2,159.5c-0.3-0.3-0.6-0.6-0.9-0.9l2.6-0.5c0,0.3,0,0.5,0,0.8C298.3,159.1,297.8,159.3,297.2,159.5
				L297.2,159.5z"/>
			<path class="st5" d="M436.7,173.6c0.4,0,0.8,0,1.1,0c-0.2,0.8-0.5,1.6-0.8,2.5c-0.3-0.1-0.7-0.1-1-0.2
				C436.2,175.1,436.5,174.3,436.7,173.6L436.7,173.6z"/>
			<path class="st6" d="M498.4,184.5v3.5c-0.2,0-0.3,0-0.5,0v-3.5H498.4z"/>
			<path class="st20" d="M500.2,174.3c-0.3,0-0.5,0.1-0.8,0.1c0.2-0.5,0.3-1.1,0.5-1.6c0.3,0,0.6,0,0.9,0
				C500.6,173.2,500.4,173.8,500.2,174.3z"/>
			<path class="st5" d="M230.4,185.1l0.3-1.1c2.1-0.6,2.2,0.4,1.6,2c-0.7,0-1.4,0-2.1-0.1C230.3,185.6,230.3,185.3,230.4,185.1
				L230.4,185.1z"/>
			<path class="st20" d="M500.1,170.5c0.1-0.7,0.2-1.3,0.2-2l1.3,0.4c-0.3,0.5-0.5,1-0.8,1.6C500.6,170.4,500.4,170.4,500.1,170.5
				L500.1,170.5z"/>
			<path class="st19" d="M246.6,182.6c0.6-0.5,1.2-1,1.8-1.5c0.2,0.2,0.4,0.5,0.6,0.7c-0.6,0.5-1.2,1-1.8,1.4
				C247,183,246.8,182.8,246.6,182.6z"/>
			<path class="st19" d="M134.8,156.5c0,0.4,0,0.8,0,1.2l-0.9,0.5c-0.3-0.3-0.6-0.5-0.9-0.8C133.6,157.1,134.2,156.8,134.8,156.5
				L134.8,156.5z"/>
			<path class="st19" d="M444.1,160.9c0.1,0.6,0.2,1.2,0.2,1.8c-0.5,0-1,0.1-1.4,0.1l-0.2-0.1C443.2,162.1,443.6,161.5,444.1,160.9z
				"/>
			<path class="st18" d="M426.3,162.8c-0.3-0.3-0.7-0.5-1-0.8l1.2-0.9C426.4,161.7,426.3,162.2,426.3,162.8L426.3,162.8z"/>
			<path class="st5" d="M435.5,181.7c-0.2,0.9-0.4,1.8-0.7,2.7c-0.3-0.1-0.6-0.1-0.9-0.2l0.7-3.4
				C434.9,181.2,435.2,181.5,435.5,181.7L435.5,181.7z"/>
			<path class="st6" d="M500.1,170.5c0.2-0.1,0.5-0.1,0.8,0c0,0.8,0,1.5-0.1,2.3c-0.3,0-0.6,0-0.9,0
				C499.9,172,500,171.2,500.1,170.5L500.1,170.5z"/>
			<path class="st5" d="M497.2,193.1c-0.2,0.7-0.3,1.5-0.5,2.2c-0.2,0-0.5-0.1-0.7-0.1c0.2-0.9,0.3-1.8,0.5-2.7
				C496.7,192.7,497,192.9,497.2,193.1z"/>
			<path class="st5" d="M245.5,271.5c0-1.1-0.1-2.2-0.1-3.2c0.3,0.2,0.5,0.3,0.8,0.5C245.9,269.7,245.7,270.6,245.5,271.5z"/>
			<path class="st5" d="M524,91.9l0-2.8C525.3,90.1,525.9,91,524,91.9z"/>
			<path class="st18" d="M149.4,206.6c0,0.3,0,0.6,0,1h-2.3c0-0.1,0-0.3,0-0.4C147.9,206.9,148.7,206.8,149.4,206.6L149.4,206.6z"/>
			<path class="st16" d="M162.5,185.1c0.1-0.8,0.1-1.5,0.2-2.3c0.3,0.1,0.6,0.2,0.9,0.3c-0.3,0.7-0.6,1.4-1,2.1L162.5,185.1z"/>
			<path class="st6" d="M436,175.9c0.3,0.1,0.7,0.1,1,0.2c-0.2,0.7-0.4,1.4-0.7,2.1c-0.3,0-0.7-0.1-1-0.1
				C435.6,177.3,435.8,176.6,436,175.9L436,175.9z"/>
			<path class="st7" d="M501.7,168.9l-1.3-0.4c0.3-0.5,0.5-1,1.2-2.1C501.6,167.7,501.6,168.3,501.7,168.9L501.7,168.9z"/>
			<path class="st5" d="M120.9,164.3c0.3,0.3,0.6,0.6,0.9,1l-0.6,0.9c-0.2-0.4-0.5-0.8-0.7-1.1L120.9,164.3L120.9,164.3z"/>
			<path class="st5" d="M197.6,144.3c0.6,0.3,1.1,0.7,1.7,1l-0.9,0.9l-1.2-1.2C197.3,144.8,197.5,144.6,197.6,144.3L197.6,144.3z"/>
			<path class="st6" d="M127.4,54c0.7-0.1,1.3-0.2,2-0.3c-0.4,0.4-0.7,0.8-1.1,1.2C128,54.6,127.7,54.2,127.4,54z"/>
			<path class="st3" d="M165.5,175.6c0.2,0.6,0.4,0.9,0.3,1.2c0,0.2-0.5,0.3-0.7,0.4c-0.1-0.2-0.3-0.5-0.2-0.6
				C164.9,176.3,165.2,176.1,165.5,175.6L165.5,175.6z"/>
			<path class="st5" d="M459.8,155c0.5-0.3,1.1-0.6,1.6-0.8C460.8,154.4,460.3,154.7,459.8,155z"/>
			<path class="st20" d="M212.4,177.6c-0.5,0.2-1,0.5-1.5,0.7c-0.1-0.2-0.2-0.3-0.3-0.5c0.4-0.3,0.8-0.5,1.2-0.8
				C212,177.2,212.2,177.4,212.4,177.6z"/>
			<path class="st16" d="M160,190.5c0.3-0.2,0.6-0.4,0.8-0.6c0.1,0.3,0.3,0.6,0.3,0.9c0,0.2-0.3,0.4-0.4,0.5
				C160.5,191.1,160.3,190.8,160,190.5L160,190.5z"/>
			<path class="st5" d="M167.2,171.9c-0.2,0.7-0.5,1.4-0.7,2.1C166.7,173.3,166.9,172.6,167.2,171.9z"/>
			<path class="st2" d="M74.4,67.6c0.3,0.2,0.7,0.4,1,0.5C75,68,74.7,67.8,74.4,67.6z"/>
			<path class="st20" d="M209,178.9c0-0.3,0.1-0.5,0.1-0.8c0.3,0.1,0.5,0.3,0.8,0.4C209.6,178.6,209.3,178.8,209,178.9L209,178.9z"
				/>
			<path class="st7" d="M374,178.3c0.1-0.2,0.2-0.4,0.4-0.5c0,0.2,0,0.4,0,0.6l-0.2,0.1L374,178.3L374,178.3z"/>
			<path class="st19" d="M153.7,204.3c-0.3,0.1-0.6,0.2-0.9,0.3c0.1-0.3,0.3-0.7,0.4-1C153.3,203.8,153.5,204.1,153.7,204.3
				L153.7,204.3z"/>
			<path class="st20" d="M211.8,177c0.4,0,0.8-0.1,1.2-0.1c-0.2,0.2-0.4,0.5-0.6,0.7C212.2,177.4,212,177.2,211.8,177z"/>
			<path class="st18" d="M146.4,207.3c-0.4,0.2-0.7,0.4-1.1,0.5C145.7,207.7,146.1,207.5,146.4,207.3z"/>
			<path class="st20" d="M214.6,176c-0.3,0.2-0.5,0.3-0.8,0.5c0.1-0.4,0.2-0.7,0.3-1.1C214.3,175.6,214.4,175.8,214.6,176z"/>
			<path class="st20" d="M215.4,175.2c-0.3,0.3-0.5,0.5-0.8,0.8c-0.2-0.2-0.4-0.4-0.5-0.6c0.3-0.2,0.5-0.5,0.8-0.7
				C215,174.9,215.2,175,215.4,175.2L215.4,175.2z"/>
			<path class="st20" d="M214.9,174.7l0.9-0.3c-0.1,0.3-0.3,0.6-0.4,0.9C215.2,175,215,174.9,214.9,174.7L214.9,174.7z"/>
			<path class="st20" d="M216.9,173l-0.7,0.4c0.1-0.3,0.3-0.5,0.4-0.8C216.8,172.7,216.9,172.8,216.9,173L216.9,173z"/>
			<path class="st5" d="M243.6,188.2c0.4,0,0.7,0,1,0c0.1,0.1,0.2,0.2,0.2,0.3c0,0.2-0.1,0.4-0.2,0.5l0,0
				C244.3,188.8,244,188.5,243.6,188.2L243.6,188.2z"/>
			<path class="st19" d="M217.6,172c0,0.3,0,0.5,0,0.8c-0.2,0.1-0.5,0.2-0.7,0.3c0-0.2-0.1-0.3-0.3-0.4
				C217,172.4,217.3,172.2,217.6,172z"/>
			<path class="st19" d="M442.9,162.8c-0.1,0.2-0.2,0.4-0.3,0.6c-0.1-0.1-0.3-0.2-0.4-0.4c0.2-0.1,0.4-0.3,0.6-0.4L442.9,162.8
				L442.9,162.8z"/>
			<path class="st20" d="M246.2,268.7c-0.3-0.2-0.5-0.3-0.8-0.5v0c0.2-0.1,0.5-0.3,0.7-0.4C246.1,268.2,246.1,268.4,246.2,268.7
				L246.2,268.7z"/>
			<path class="st6" d="M130.9,52.5l0,1.1c-0.3-0.1-0.6-0.1-0.9-0.2C130.3,53.1,130.6,52.8,130.9,52.5L130.9,52.5z"/>
			<path class="st7" d="M49.6,68.2c-0.1-0.3-0.1-0.7-0.2-1c0.8,0,1.6,0,2.4,0c0,0.3,0.1,0.6,0.1,0.9C51.1,68.1,50.3,68.2,49.6,68.2
				L49.6,68.2z"/>
			<path class="st19" d="M51.9,68.1c0-0.3-0.1-0.6-0.1-0.9c0.5,0.2,0.9,0.4,1.4,0.5C52.7,67.8,52.3,68,51.9,68.1L51.9,68.1z"/>
			<path class="st19" d="M229.4,200.5c0,0.6,0.1,1.2,0.1,1.8l0.1,0.8c-0.1,0.2-0.1,0.4,0,0.7c-0.6,0-1.1,0-1.7,0.1
				c0-3.2,0-6.4,0-9.6c0.4,0,0.7,0,1,0.1c0.3,0.7,0.5,1.3,0.8,2C229.6,197.7,229.5,199.1,229.4,200.5L229.4,200.5z"/>
			<path class="st2" d="M230.7,219.2l-1.2,0c-0.3-2.6-0.7-5.2-1-7.7c0.3-0.1,0.7-0.2,1-0.3c0.2,0.4,0.4,0.7,0.5,1.1l0.3,2.4
				c0.1,0.8,0.2,1.5,0.4,2.3c0.1,0.5,0.2,1,0.3,1.5C230.9,218.7,230.8,218.9,230.7,219.2L230.7,219.2z"/>
			<path class="st19" d="M411.9,179.7c-0.3,0-0.5,0.1-0.8,0.1c0.5-0.8,0.9-1.6,1.4-2.4C412.3,178.2,412.1,178.9,411.9,179.7z"/>
			<path class="st4" d="M130.7,145.9c-0.6,3.8-2.5,6.6-4.6,9.5C123.5,151.8,125.7,147.1,130.7,145.9z"/>
			<path class="st18" d="M229.8,196.3c-0.3-0.7-0.5-1.3-0.8-2c0.1-0.2,0.2-0.3,0.4-0.4C229.5,194.7,229.6,195.5,229.8,196.3z"/>
			<path class="st5" d="M229.6,203.1l-0.1-0.8c0.6,0,1.1,0,1.7,0c-0.1,0.3-0.1,0.5-0.2,0.8C230.6,203.1,230.1,203.1,229.6,203.1
				L229.6,203.1z"/>
			<path class="st18" d="M229.6,203.1c0.5,0,0.9,0,1.4,0c-0.5,0.2-0.9,0.4-1.4,0.7C229.5,203.5,229.5,203.3,229.6,203.1L229.6,203.1
				z"/>
			<path class="st16" d="M189.8,148c-0.6,2.1-1.3,4.2-2,6.3c-0.2-0.2-0.3-0.4-0.5-0.6c0.2-1.4,0.4-2.8,0.6-4.2
				C188.6,149,189.2,148.5,189.8,148L189.8,148z"/>
			<path class="st16" d="M192.3,174.1c-2.9-2.6-4.8-5.7-5.2-10.2c2.1,3.4,4,6.4,5.8,9.4C192.7,173.6,192.5,173.9,192.3,174.1
				L192.3,174.1z"/>
			<path class="st16" d="M193,173.4c1.8,1.2,3.6,2.4,5.4,3.6c-0.2,0.2-0.3,0.4-0.5,0.6c-1.8-1.1-3.7-2.3-5.5-3.5
				C192.5,173.9,192.8,173.6,193,173.4L193,173.4z"/>
			<path class="st18" d="M187.8,154.3l-0.6,9c-0.7-3.2-1.5-6.4,0.1-9.5C187.5,153.9,187.6,154.1,187.8,154.3z"/>
		</g>
	</g>
</g>
</svg>
